STARTFONT 2.1
COMMENT $XFree86$
COMMENT ISO10646-1 extension by Markus Kuhn <mkuhn@acm.org>, 2001-03-20
COMMENT  (c) Copyright Bigelow & Holmes 1986, 1985. Lucida is a registered
COMMENT  trademark of Bigelow & Holmes. See LEGAL NOTICE file for terms 
COMMENT  of the license. 
FONT -B&H-Lucida-Bold-R-Normal-Sans-14-100-100-100-P-89-ISO10646-1
SIZE 10 100 100
FONTBOUNDINGBOX 27 20 -9 -6
STARTPROPERTIES 22
COMMENT Begin LogicalFontDescription
FONTNAME_REGISTRY ""
FOUNDRY "B&H"
FAMILY_NAME "Lucida"
WEIGHT_NAME "Bold"
SLANT "R"
SETWIDTH_NAME "Normal"
ADD_STYLE_NAME "Sans"
PIXEL_SIZE 14
POINT_SIZE 100
RESOLUTION_X 100
RESOLUTION_Y 100
SPACING "P"
AVERAGE_WIDTH 89
CHARSET_REGISTRY "ISO10646"
CHARSET_ENCODING "1"
COMMENT END LogicalFontDescription
FONT_ASCENT 13
FONT_DESCENT 3
DEFAULT_CHAR 0
COPYRIGHT "Copyright Bigelow & Holmes 1986, 1985."
FACE_NAME "Lucida Sans Bold"
X_HEIGHT 7
CAP_HEIGHT 10
ENDPROPERTIES
CHARS 756
STARTCHAR char0
ENCODING 0
SWIDTH 813 0
DWIDTH 11 0
BBX 9 9 1 0
BITMAP
AA80
0000
8080
0000
8080
0000
8080
0000
AA80
ENDCHAR
STARTCHAR space
ENCODING 32
SWIDTH 343 0
DWIDTH 5 0
BBX 1 1 0 0
BITMAP
00
ENDCHAR
STARTCHAR exclam
ENCODING 33
SWIDTH 265 0
DWIDTH 5 0
BBX 2 10 1 0
BITMAP
C0
C0
C0
C0
C0
80
80
00
00
C0
ENDCHAR
STARTCHAR quotedbl
ENCODING 34
SWIDTH 530 0
DWIDTH 7 0
BBX 6 4 1 6
BITMAP
EC
CC
C8
88
ENDCHAR
STARTCHAR numbersign
ENCODING 35
SWIDTH 687 0
DWIDTH 10 0
BBX 9 10 0 0
BITMAP
0900
1300
1200
7F80
1200
2400
FF00
2400
6400
4800
ENDCHAR
STARTCHAR dollar
ENCODING 36
SWIDTH 687 0
DWIDTH 10 0
BBX 7 14 1 -2
BITMAP
10
10
7E
76
F0
F0
78
3C
1E
16
DE
FC
10
10
ENDCHAR
STARTCHAR percent
ENCODING 37
SWIDTH 898 0
DWIDTH 13 0
BBX 12 10 0 0
BITMAP
6060
9080
9180
9100
9200
6400
0860
1890
1090
6060
ENDCHAR
STARTCHAR ampersand
ENCODING 38
SWIDTH 792 0
DWIDTH 11 0
BBX 10 10 1 0
BITMAP
1E00
3100
3100
3F00
3C40
FCC0
CCC0
C780
E300
3FC0
ENDCHAR
STARTCHAR quotesingle
ENCODING 39
SWIDTH 265 0
DWIDTH 4 0
BBX 3 4 0 6
BITMAP
E0
E0
40
40
ENDCHAR
STARTCHAR parenleft
ENCODING 40
SWIDTH 386 0
DWIDTH 5 0
BBX 3 13 1 -3
BITMAP
20
60
60
C0
C0
C0
C0
C0
C0
40
60
60
20
ENDCHAR
STARTCHAR parenright
ENCODING 41
SWIDTH 386 0
DWIDTH 5 0
BBX 3 13 1 -3
BITMAP
80
C0
C0
60
60
60
60
60
60
40
C0
C0
80
ENDCHAR
STARTCHAR asterisk
ENCODING 42
SWIDTH 464 0
DWIDTH 6 0
BBX 5 4 1 6
BITMAP
20
D8
D0
58
ENDCHAR
STARTCHAR plus
ENCODING 43
SWIDTH 687 0
DWIDTH 10 0
BBX 7 8 1 0
BITMAP
10
10
10
FE
10
10
10
10
ENDCHAR
STARTCHAR comma
ENCODING 44
SWIDTH 343 0
DWIDTH 5 0
BBX 3 5 1 -3
BITMAP
E0
E0
60
60
C0
ENDCHAR
STARTCHAR hyphen
ENCODING 45
SWIDTH 289 0
DWIDTH 4 0
BBX 3 1 1 4
BITMAP
E0
ENDCHAR
STARTCHAR period
ENCODING 46
SWIDTH 343 0
DWIDTH 5 0
BBX 3 2 1 0
BITMAP
E0
E0
ENDCHAR
STARTCHAR slash
ENCODING 47
SWIDTH 596 0
DWIDTH 8 0
BBX 8 13 0 -3
BITMAP
03
02
04
04
08
08
18
10
10
20
20
40
C0
ENDCHAR
STARTCHAR zero
ENCODING 48
SWIDTH 687 0
DWIDTH 10 0
BBX 9 10 0 0
BITMAP
3E00
6300
4100
C180
C180
C180
C180
4100
6300
3E00
ENDCHAR
STARTCHAR one
ENCODING 49
SWIDTH 687 0
DWIDTH 10 0
BBX 3 10 3 0
BITMAP
E0
60
60
60
60
60
60
60
60
60
ENDCHAR
STARTCHAR two
ENCODING 50
SWIDTH 687 0
DWIDTH 10 0
BBX 8 10 1 0
BITMAP
FC
87
03
03
06
0C
18
70
E0
FF
ENDCHAR
STARTCHAR three
ENCODING 51
SWIDTH 687 0
DWIDTH 10 0
BBX 7 10 1 0
BITMAP
FC
86
06
06
78
0C
06
06
8E
FC
ENDCHAR
STARTCHAR four
ENCODING 52
SWIDTH 687 0
DWIDTH 10 0
BBX 8 10 1 0
BITMAP
06
0E
16
26
66
C6
FF
06
06
06
ENDCHAR
STARTCHAR five
ENCODING 53
SWIDTH 687 0
DWIDTH 10 0
BBX 7 10 2 0
BITMAP
FE
80
80
F8
0C
06
06
06
8C
F8
ENDCHAR
STARTCHAR six
ENCODING 54
SWIDTH 687 0
DWIDTH 10 0
BBX 8 10 1 0
BITMAP
1E
62
40
DC
E7
C3
C3
C3
66
3C
ENDCHAR
STARTCHAR seven
ENCODING 55
SWIDTH 687 0
DWIDTH 10 0
BBX 7 10 2 0
BITMAP
FE
06
04
08
18
30
30
60
60
E0
ENDCHAR
STARTCHAR eight
ENCODING 56
SWIDTH 687 0
DWIDTH 10 0
BBX 8 10 1 0
BITMAP
3E
63
63
7E
3C
7E
C7
C3
E3
7C
ENDCHAR
STARTCHAR nine
ENCODING 57
SWIDTH 687 0
DWIDTH 10 0
BBX 8 10 1 0
BITMAP
3C
66
C3
C3
C3
E7
3B
02
46
78
ENDCHAR
STARTCHAR colon
ENCODING 58
SWIDTH 343 0
DWIDTH 5 0
BBX 2 7 1 0
BITMAP
C0
C0
00
00
00
C0
C0
ENDCHAR
STARTCHAR semicolon
ENCODING 59
SWIDTH 343 0
DWIDTH 5 0
BBX 2 10 1 -3
BITMAP
C0
C0
00
00
00
C0
C0
40
40
80
ENDCHAR
STARTCHAR less
ENCODING 60
SWIDTH 687 0
DWIDTH 10 0
BBX 7 8 0 0
BITMAP
02
06
18
E0
60
18
06
02
ENDCHAR
STARTCHAR equal
ENCODING 61
SWIDTH 687 0
DWIDTH 10 0
BBX 8 5 1 1
BITMAP
FF
00
00
00
FF
ENDCHAR
STARTCHAR greater
ENCODING 62
SWIDTH 687 0
DWIDTH 10 0
BBX 7 8 1 0
BITMAP
80
C0
30
0C
0E
30
C0
80
ENDCHAR
STARTCHAR question
ENCODING 63
SWIDTH 572 0
DWIDTH 8 0
BBX 7 10 1 0
BITMAP
FC
86
06
04
08
10
30
00
00
30
ENDCHAR
STARTCHAR at
ENCODING 64
SWIDTH 833 0
DWIDTH 12 0
BBX 10 10 2 0
BITMAP
0F00
3080
4040
4E40
9240
A640
AE80
BF00
4000
3C00
ENDCHAR
STARTCHAR A
ENCODING 65
SWIDTH 773 0
DWIDTH 11 0
BBX 10 10 0 0
BITMAP
0C00
1600
1600
1600
2300
2300
3F00
4180
4180
C1C0
ENDCHAR
STARTCHAR B
ENCODING 66
SWIDTH 669 0
DWIDTH 9 0
BBX 7 10 1 0
BITMAP
FC
C6
C6
CE
F8
CC
C6
C6
C6
FC
ENDCHAR
STARTCHAR C
ENCODING 67
SWIDTH 726 0
DWIDTH 10 0
BBX 9 10 1 0
BITMAP
1F80
7080
6000
C000
C000
C000
C000
6000
7080
1F80
ENDCHAR
STARTCHAR D
ENCODING 68
SWIDTH 819 0
DWIDTH 11 0
BBX 10 10 1 0
BITMAP
FE00
C380
C180
C0C0
C0C0
C0C0
C0C0
C080
C180
FE00
ENDCHAR
STARTCHAR E
ENCODING 69
SWIDTH 645 0
DWIDTH 9 0
BBX 7 10 1 0
BITMAP
FE
C0
C0
C0
FC
C0
C0
C0
C0
FE
ENDCHAR
STARTCHAR F
ENCODING 70
SWIDTH 602 0
DWIDTH 8 0
BBX 6 10 2 0
BITMAP
FC
C0
C0
C0
F8
C0
C0
C0
C0
C0
ENDCHAR
STARTCHAR G
ENCODING 71
SWIDTH 759 0
DWIDTH 11 0
BBX 9 10 1 0
BITMAP
1F80
7080
6000
C000
C000
C000
C180
6180
7180
1F80
ENDCHAR
STARTCHAR H
ENCODING 72
SWIDTH 813 0
DWIDTH 11 0
BBX 9 10 1 0
BITMAP
C180
C180
C180
C180
FF80
C180
C180
C180
C180
C180
ENDCHAR
STARTCHAR I
ENCODING 73
SWIDTH 361 0
DWIDTH 5 0
BBX 2 10 2 0
BITMAP
C0
C0
C0
C0
C0
C0
C0
C0
C0
C0
ENDCHAR
STARTCHAR J
ENCODING 74
SWIDTH 501 0
DWIDTH 7 0
BBX 5 13 1 -3
BITMAP
18
18
18
18
18
18
18
18
18
18
18
18
F0
ENDCHAR
STARTCHAR K
ENCODING 75
SWIDTH 753 0
DWIDTH 11 0
BBX 9 10 1 0
BITMAP
C300
C600
CC00
D800
D000
F800
DC00
CE00
C600
C380
ENDCHAR
STARTCHAR L
ENCODING 76
SWIDTH 620 0
DWIDTH 9 0
BBX 7 10 1 0
BITMAP
C0
C0
C0
C0
C0
C0
C0
C0
C0
FE
ENDCHAR
STARTCHAR M
ENCODING 77
SWIDTH 940 0
DWIDTH 13 0
BBX 11 10 1 0
BITMAP
E0E0
E0E0
B0E0
B160
B160
9A60
9A60
8A60
8C60
8060
ENDCHAR
STARTCHAR N
ENCODING 78
SWIDTH 783 0
DWIDTH 11 0
BBX 9 10 1 0
BITMAP
C080
E080
F080
B080
9880
8C80
8680
8780
8380
8180
ENDCHAR
STARTCHAR O
ENCODING 79
SWIDTH 855 0
DWIDTH 12 0
BBX 11 10 0 0
BITMAP
1F00
71C0
60C0
C060
C060
C060
C060
60C0
71C0
1F00
ENDCHAR
STARTCHAR P
ENCODING 80
SWIDTH 657 0
DWIDTH 9 0
BBX 7 10 1 0
BITMAP
FC
CE
C6
C6
CC
F8
C0
C0
C0
C0
ENDCHAR
STARTCHAR Q
ENCODING 81
SWIDTH 855 0
DWIDTH 12 0
BBX 13 13 0 -3
BITMAP
1F00
71C0
60C0
C060
C060
C060
C060
60E0
71C0
1F80
01F8
00F0
0030
ENDCHAR
STARTCHAR R
ENCODING 82
SWIDTH 734 0
DWIDTH 10 0
BBX 9 10 1 0
BITMAP
FE00
C300
C300
C300
C600
F800
CC00
CE00
C600
C780
ENDCHAR
STARTCHAR S
ENCODING 83
SWIDTH 594 0
DWIDTH 8 0
BBX 7 10 1 0
BITMAP
7C
E4
E0
E0
78
1C
06
06
86
F8
ENDCHAR
STARTCHAR T
ENCODING 84
SWIDTH 735 0
DWIDTH 10 0
BBX 10 10 0 0
BITMAP
FFC0
0C00
0C00
0C00
0C00
0C00
0C00
0C00
0C00
0C00
ENDCHAR
STARTCHAR U
ENCODING 85
SWIDTH 783 0
DWIDTH 11 0
BBX 9 10 1 0
BITMAP
C180
C180
C180
C180
C180
C180
C180
C180
6300
3E00
ENDCHAR
STARTCHAR V
ENCODING 86
SWIDTH 735 0
DWIDTH 10 0
BBX 10 10 0 0
BITMAP
E0C0
6080
6080
3100
3100
3900
1A00
1A00
0E00
0C00
ENDCHAR
STARTCHAR W
ENCODING 87
SWIDTH 940 0
DWIDTH 13 0
BBX 13 10 0 0
BITMAP
C308
6310
6310
6590
65B0
35A0
35A0
39A0
38E0
18C0
ENDCHAR
STARTCHAR X
ENCODING 88
SWIDTH 699 0
DWIDTH 10 0
BBX 9 10 1 0
BITMAP
6100
7200
3200
1C00
1C00
1C00
1E00
2600
6700
C380
ENDCHAR
STARTCHAR Y
ENCODING 89
SWIDTH 738 0
DWIDTH 10 0
BBX 8 10 1 0
BITMAP
E3
62
74
34
38
18
18
18
18
18
ENDCHAR
STARTCHAR Z
ENCODING 90
SWIDTH 675 0
DWIDTH 9 0
BBX 8 10 1 0
BITMAP
FF
07
0E
0C
1C
38
30
70
E0
FF
ENDCHAR
STARTCHAR bracketleft
ENCODING 91
SWIDTH 386 0
DWIDTH 5 0
BBX 3 13 1 -3
BITMAP
E0
C0
C0
C0
C0
C0
C0
C0
C0
C0
C0
C0
E0
ENDCHAR
STARTCHAR backslash
ENCODING 92
SWIDTH 596 0
DWIDTH 8 0
BBX 8 13 0 -3
BITMAP
C0
40
20
20
10
10
18
08
08
04
04
02
03
ENDCHAR
STARTCHAR bracketright
ENCODING 93
SWIDTH 386 0
DWIDTH 5 0
BBX 3 13 1 -3
BITMAP
E0
60
60
60
60
60
60
60
60
60
60
60
E0
ENDCHAR
STARTCHAR asciicircum
ENCODING 94
SWIDTH 687 0
DWIDTH 10 0
BBX 8 7 1 2
BITMAP
08
18
18
24
24
42
C3
ENDCHAR
STARTCHAR underscore
ENCODING 95
SWIDTH 500 0
DWIDTH 7 0
BBX 6 1 1 -2
BITMAP
FC
ENDCHAR
STARTCHAR grave
ENCODING 96
SWIDTH 675 0
DWIDTH 9 0
BBX 4 1 2 9
BITMAP
F0
ENDCHAR
STARTCHAR a
ENCODING 97
SWIDTH 623 0
DWIDTH 9 0
BBX 8 7 0 0
BITMAP
7C
46
7E
E6
C6
CF
77
ENDCHAR
STARTCHAR b
ENCODING 98
SWIDTH 696 0
DWIDTH 10 0
BBX 8 10 1 0
BITMAP
C0
C0
C0
DE
E7
C3
C3
C3
C7
FE
ENDCHAR
STARTCHAR c
ENCODING 99
SWIDTH 545 0
DWIDTH 8 0
BBX 6 7 1 0
BITMAP
3C
60
C0
C0
C0
60
3C
ENDCHAR
STARTCHAR d
ENCODING 100
SWIDTH 696 0
DWIDTH 10 0
BBX 8 10 1 0
BITMAP
03
03
03
3F
63
C3
C3
C3
E7
7B
ENDCHAR
STARTCHAR e
ENCODING 101
SWIDTH 614 0
DWIDTH 9 0
BBX 8 7 0 0
BITMAP
3E
63
C3
FF
E0
70
3F
ENDCHAR
STARTCHAR f
ENCODING 102
SWIDTH 461 0
DWIDTH 6 0
BBX 6 10 0 0
BITMAP
3C
64
60
F8
60
60
60
60
60
60
ENDCHAR
STARTCHAR g
ENCODING 103
SWIDTH 696 0
DWIDTH 10 0
BBX 8 10 1 -3
BITMAP
7F
63
C3
C3
C3
E7
7B
03
47
7C
ENDCHAR
STARTCHAR h
ENCODING 104
SWIDTH 693 0
DWIDTH 10 0
BBX 7 10 1 0
BITMAP
C0
C0
C0
DC
E6
C6
C6
C6
C6
C6
ENDCHAR
STARTCHAR i
ENCODING 105
SWIDTH 361 0
DWIDTH 5 0
BBX 2 10 2 0
BITMAP
C0
00
00
C0
C0
C0
C0
C0
C0
C0
ENDCHAR
STARTCHAR j
ENCODING 106
SWIDTH 361 0
DWIDTH 5 0
BBX 5 13 0 -3
BITMAP
18
00
00
18
18
18
18
18
18
18
18
98
F0
ENDCHAR
STARTCHAR k
ENCODING 107
SWIDTH 681 0
DWIDTH 10 0
BBX 7 10 2 0
BITMAP
C0
C0
C0
CC
C8
D0
F0
D8
DC
CE
ENDCHAR
STARTCHAR l
ENCODING 108
SWIDTH 361 0
DWIDTH 5 0
BBX 2 10 2 0
BITMAP
C0
C0
C0
C0
C0
C0
C0
C0
C0
C0
ENDCHAR
STARTCHAR m
ENCODING 109
SWIDTH 1006 0
DWIDTH 14 0
BBX 12 7 1 0
BITMAP
DCF0
E730
C630
C630
C630
C630
C630
ENDCHAR
STARTCHAR n
ENCODING 110
SWIDTH 693 0
DWIDTH 10 0
BBX 7 7 1 0
BITMAP
DC
E6
C6
C6
C6
C6
C6
ENDCHAR
STARTCHAR o
ENCODING 111
SWIDTH 675 0
DWIDTH 9 0
BBX 8 7 1 0
BITMAP
3C
66
C3
C3
C3
66
3C
ENDCHAR
STARTCHAR p
ENCODING 112
SWIDTH 696 0
DWIDTH 10 0
BBX 8 10 1 -3
BITMAP
DE
E7
C3
C3
C3
C6
FC
C0
C0
C0
ENDCHAR
STARTCHAR q
ENCODING 113
SWIDTH 696 0
DWIDTH 10 0
BBX 8 10 1 -3
BITMAP
7F
E3
C3
C3
C3
E7
7B
03
03
03
ENDCHAR
STARTCHAR r
ENCODING 114
SWIDTH 500 0
DWIDTH 7 0
BBX 5 7 1 0
BITMAP
D8
F8
C0
C0
C0
C0
C0
ENDCHAR
STARTCHAR s
ENCODING 115
SWIDTH 622 0
DWIDTH 9 0
BBX 7 7 1 0
BITMAP
7C
E0
F8
FE
3E
8E
FC
ENDCHAR
STARTCHAR t
ENCODING 116
SWIDTH 436 0
DWIDTH 6 0
BBX 5 9 1 0
BITMAP
60
60
F8
60
60
60
60
68
38
ENDCHAR
STARTCHAR u
ENCODING 117
SWIDTH 693 0
DWIDTH 10 0
BBX 7 7 1 0
BITMAP
C6
C6
C6
C6
C6
CE
76
ENDCHAR
STARTCHAR v
ENCODING 118
SWIDTH 663 0
DWIDTH 9 0
BBX 9 7 0 0
BITMAP
E180
6100
3300
3200
3A00
1C00
1C00
ENDCHAR
STARTCHAR w
ENCODING 119
SWIDTH 885 0
DWIDTH 12 0
BBX 12 7 0 0
BITMAP
C730
6720
6720
6B60
79C0
39C0
31C0
ENDCHAR
STARTCHAR x
ENCODING 120
SWIDTH 568 0
DWIDTH 8 0
BBX 7 7 1 0
BITMAP
E6
7C
38
38
3C
7C
CE
ENDCHAR
STARTCHAR y
ENCODING 121
SWIDTH 645 0
DWIDTH 9 0
BBX 9 10 0 -3
BITMAP
E180
6100
7200
3200
3400
1C00
1800
1800
3000
7000
ENDCHAR
STARTCHAR z
ENCODING 122
SWIDTH 608 0
DWIDTH 9 0
BBX 7 7 1 0
BITMAP
FE
0E
1C
38
70
E0
FE
ENDCHAR
STARTCHAR braceleft
ENCODING 123
SWIDTH 386 0
DWIDTH 5 0
BBX 4 13 1 -3
BITMAP
30
70
60
70
30
20
C0
20
30
70
60
70
30
ENDCHAR
STARTCHAR bar
ENCODING 124
SWIDTH 265 0
DWIDTH 4 0
BBX 1 13 1 -3
BITMAP
80
80
80
80
80
80
80
80
80
80
80
80
80
ENDCHAR
STARTCHAR braceright
ENCODING 125
SWIDTH 386 0
DWIDTH 5 0
BBX 4 13 1 -3
BITMAP
80
C0
C0
C0
C0
40
30
40
C0
C0
C0
C0
80
ENDCHAR
STARTCHAR asciitilde
ENCODING 126
SWIDTH 687 0
DWIDTH 10 0
BBX 8 3 1 2
BITMAP
61
99
86
ENDCHAR
STARTCHAR space
ENCODING 160
SWIDTH 343 0
DWIDTH 5 0
BBX 1 1 0 0
BITMAP
00
ENDCHAR
STARTCHAR exclamdown
ENCODING 161
SWIDTH 265 0
DWIDTH 5 0
BBX 2 10 1 -3
BITMAP
C0
00
00
80
80
C0
C0
C0
C0
C0
ENDCHAR
STARTCHAR cent
ENCODING 162
SWIDTH 687 0
DWIDTH 10 0
BBX 6 10 2 0
BITMAP
10
3C
44
C0
C0
C0
C0
64
3C
10
ENDCHAR
STARTCHAR sterling
ENCODING 163
SWIDTH 687 0
DWIDTH 10 0
BBX 6 10 2 0
BITMAP
3C
64
60
60
60
F0
60
60
40
FC
ENDCHAR
STARTCHAR currency
ENCODING 164
SWIDTH 687 0
DWIDTH 10 0
BBX 10 10 0 0
BITMAP
C040
40C0
2D00
3300
2100
2100
3300
3F00
C080
80C0
ENDCHAR
STARTCHAR yen
ENCODING 165
SWIDTH 687 0
DWIDTH 10 0
BBX 9 10 0 0
BITMAP
E180
7300
3E00
1C00
3E00
1800
3E00
1800
1800
1800
ENDCHAR
STARTCHAR brokenbar
ENCODING 166
SWIDTH 265 0
DWIDTH 4 0
BBX 1 13 1 -3
BITMAP
80
80
80
80
80
00
00
00
80
80
80
80
80
ENDCHAR
STARTCHAR section
ENCODING 167
SWIDTH 693 0
DWIDTH 10 0
BBX 7 13 1 -3
BITMAP
7C
E0
E0
F8
7C
8E
82
E2
7C
1E
0E
8E
FC
ENDCHAR
STARTCHAR dieresis
ENCODING 168
SWIDTH 675 0
DWIDTH 9 0
BBX 5 1 2 9
BITMAP
D8
ENDCHAR
STARTCHAR copyright
ENCODING 169
SWIDTH 825 0
DWIDTH 12 0
BBX 10 10 1 0
BITMAP
1E00
2100
5E80
B040
A040
A040
B040
5E80
2100
1E00
ENDCHAR
STARTCHAR ordfeminine
ENCODING 170
SWIDTH 536 0
DWIDTH 8 0
BBX 7 5 0 5
BITMAP
F8
0C
0C
FC
FE
ENDCHAR
STARTCHAR guillemotleft
ENCODING 171
SWIDTH 614 0
DWIDTH 9 0
BBX 7 7 -1 0
BITMAP
22
66
C8
98
C8
44
26
ENDCHAR
STARTCHAR logicalnot
ENCODING 172
SWIDTH 687 0
DWIDTH 10 0
BBX 8 5 1 1
BITMAP
FF
01
01
01
01
ENDCHAR
STARTCHAR hyphen
ENCODING 173
SWIDTH 289 0
DWIDTH 4 0
BBX 3 1 1 4
BITMAP
E0
ENDCHAR
STARTCHAR registered
ENCODING 174
SWIDTH 687 0
DWIDTH 10 0
BBX 7 7 1 3
BITMAP
38
44
BA
BA
BA
44
38
ENDCHAR
STARTCHAR macron
ENCODING 175
SWIDTH 675 0
DWIDTH 9 0
BBX 5 1 2 9
BITMAP
F8
ENDCHAR
STARTCHAR degree
ENCODING 176
SWIDTH 241 0
DWIDTH 3 0
BBX 3 2 2 8
BITMAP
E0
60
ENDCHAR
STARTCHAR plusminus
ENCODING 177
SWIDTH 687 0
DWIDTH 10 0
BBX 7 8 1 0
BITMAP
10
10
10
FE
10
10
00
FE
ENDCHAR
STARTCHAR twosuperior
ENCODING 178
SWIDTH 536 0
DWIDTH 6 0
BBX 5 6 -8 4
BITMAP
F0
08
08
30
E0
F8
ENDCHAR
STARTCHAR threesuperior
ENCODING 179
SWIDTH 536 0
DWIDTH 6 0
BBX 4 6 -8 4
BITMAP
E0
10
60
10
10
E0
ENDCHAR
STARTCHAR acute
ENCODING 180
SWIDTH 675 0
DWIDTH 9 0
BBX 4 1 3 9
BITMAP
F0
ENDCHAR
STARTCHAR mu
ENCODING 181
SWIDTH 699 0
DWIDTH 10 0
BBX 7 10 1 -3
BITMAP
C6
C6
C6
C6
C6
CE
F6
C0
C0
C0
ENDCHAR
STARTCHAR paragraph
ENCODING 182
SWIDTH 693 0
DWIDTH 10 0
BBX 6 13 1 -3
BITMAP
7C
F4
F4
F4
74
14
14
14
14
14
14
14
14
ENDCHAR
STARTCHAR periodcentered
ENCODING 183
SWIDTH 343 0
DWIDTH 10 0
BBX 2 1 4 4
BITMAP
C0
ENDCHAR
STARTCHAR cedilla
ENCODING 184
SWIDTH 675 0
DWIDTH 9 0
BBX 3 3 3 -3
BITMAP
C0
40
E0
ENDCHAR
STARTCHAR onesuperior
ENCODING 185
SWIDTH 536 0
DWIDTH 6 0
BBX 2 6 -9 4
BITMAP
C0
40
40
40
40
40
ENDCHAR
STARTCHAR ordmasculine
ENCODING 186
SWIDTH 536 0
DWIDTH 8 0
BBX 7 5 0 5
BITMAP
7C
C6
C6
C6
7C
ENDCHAR
STARTCHAR guillemotright
ENCODING 187
SWIDTH 614 0
DWIDTH 9 0
BBX 7 7 0 0
BITMAP
C8
44
26
32
26
CC
88
ENDCHAR
STARTCHAR onequarter
ENCODING 188
SWIDTH 1066 0
DWIDTH 13 0
BBX 11 10 4 0
BITMAP
C0C0
4100
4300
4200
44C0
49C0
1340
33E0
2040
C040
ENDCHAR
STARTCHAR onehalf
ENCODING 189
SWIDTH 1066 0
DWIDTH 13 0
BBX 11 10 4 0
BITMAP
C0C0
4100
4300
4200
47C0
4820
1020
30C0
2380
C3E0
ENDCHAR
STARTCHAR threequarters
ENCODING 190
SWIDTH 1120 0
DWIDTH 13 0
BBX 12 10 5 0
BITMAP
E060
1080
6180
1100
1260
E4E0
09A0
19F0
1020
6020
ENDCHAR
STARTCHAR questiondown
ENCODING 191
SWIDTH 572 0
DWIDTH 8 0
BBX 7 10 0 -3
BITMAP
18
00
00
18
10
20
40
C0
C2
7E
ENDCHAR
STARTCHAR Agrave
ENCODING 192
SWIDTH 773 0
DWIDTH 11 0
BBX 10 12 0 0
BITMAP
1E00
0000
0C00
1600
1600
1600
2300
2300
3F00
4180
4180
C1C0
ENDCHAR
STARTCHAR Aacute
ENCODING 193
SWIDTH 773 0
DWIDTH 11 0
BBX 10 12 0 0
BITMAP
0F00
0000
0C00
1600
1600
1600
2300
2300
3F00
4180
4180
C1C0
ENDCHAR
STARTCHAR Acircumflex
ENCODING 194
SWIDTH 773 0
DWIDTH 11 0
BBX 10 12 0 0
BITMAP
1F00
0000
0C00
1600
1600
1600
2300
2300
3F00
4180
4180
C1C0
ENDCHAR
STARTCHAR Atilde
ENCODING 195
SWIDTH 773 0
DWIDTH 11 0
BBX 10 12 0 0
BITMAP
1F00
0000
0C00
1600
1600
1600
2300
2300
3F00
4180
4180
C1C0
ENDCHAR
STARTCHAR Adieresis
ENCODING 196
SWIDTH 773 0
DWIDTH 11 0
BBX 10 12 0 0
BITMAP
1B00
0000
0C00
1600
1600
1600
2300
2300
3F00
4180
4180
C1C0
ENDCHAR
STARTCHAR Aring
ENCODING 197
SWIDTH 773 0
DWIDTH 11 0
BBX 10 12 0 0
BITMAP
0C00
0000
0C00
1600
1600
1600
2300
2300
3F00
4180
4180
C1C0
ENDCHAR
STARTCHAR AE
ENCODING 198
SWIDTH 997 0
DWIDTH 14 0
BBX 12 10 -1 0
BITMAP
07F0
0F00
0B00
1B00
13E0
2300
7F00
4300
C300
83F0
ENDCHAR
STARTCHAR Ccedilla
ENCODING 199
SWIDTH 726 0
DWIDTH 10 0
BBX 9 13 1 -3
BITMAP
1F80
7080
6000
C000
C000
C000
C000
6000
7080
1F80
0800
0800
1C00
ENDCHAR
STARTCHAR Egrave
ENCODING 200
SWIDTH 645 0
DWIDTH 9 0
BBX 7 12 1 0
BITMAP
78
00
FE
C0
C0
C0
FC
C0
C0
C0
C0
FE
ENDCHAR
STARTCHAR Eacute
ENCODING 201
SWIDTH 645 0
DWIDTH 9 0
BBX 7 12 1 0
BITMAP
3C
00
FE
C0
C0
C0
FC
C0
C0
C0
C0
FE
ENDCHAR
STARTCHAR Ecircumflex
ENCODING 202
SWIDTH 645 0
DWIDTH 9 0
BBX 7 12 1 0
BITMAP
7C
00
FE
C0
C0
C0
FC
C0
C0
C0
C0
FE
ENDCHAR
STARTCHAR Edieresis
ENCODING 203
SWIDTH 645 0
DWIDTH 9 0
BBX 7 12 1 0
BITMAP
6C
00
FE
C0
C0
C0
FC
C0
C0
C0
C0
FE
ENDCHAR
STARTCHAR Igrave
ENCODING 204
SWIDTH 361 0
DWIDTH 5 0
BBX 4 12 3 0
BITMAP
F0
00
60
60
60
60
60
60
60
60
60
60
ENDCHAR
STARTCHAR Iacute
ENCODING 205
SWIDTH 361 0
DWIDTH 5 0
BBX 4 12 2 0
BITMAP
F0
00
C0
C0
C0
C0
C0
C0
C0
C0
C0
C0
ENDCHAR
STARTCHAR Icircumflex
ENCODING 206
SWIDTH 361 0
DWIDTH 5 0
BBX 5 12 3 0
BITMAP
F8
00
60
60
60
60
60
60
60
60
60
60
ENDCHAR
STARTCHAR Idieresis
ENCODING 207
SWIDTH 361 0
DWIDTH 5 0
BBX 5 12 3 0
BITMAP
D8
00
60
60
60
60
60
60
60
60
60
60
ENDCHAR
STARTCHAR Eth
ENCODING 208
SWIDTH 819 0
DWIDTH 11 0
BBX 11 10 0 0
BITMAP
7F00
61C0
60C0
6060
F860
6060
6060
6040
60C0
7F00
ENDCHAR
STARTCHAR Ntilde
ENCODING 209
SWIDTH 783 0
DWIDTH 11 0
BBX 9 12 1 0
BITMAP
3E00
0000
C080
E080
F080
B080
9880
8C80
8680
8780
8380
8180
ENDCHAR
STARTCHAR Ograve
ENCODING 210
SWIDTH 855 0
DWIDTH 12 0
BBX 11 12 0 0
BITMAP
1E00
0000
1F00
71C0
60C0
C060
C060
C060
C060
60C0
71C0
1F00
ENDCHAR
STARTCHAR Oacute
ENCODING 211
SWIDTH 855 0
DWIDTH 12 0
BBX 11 12 0 0
BITMAP
0F00
0000
1F00
71C0
60C0
C060
C060
C060
C060
60C0
71C0
1F00
ENDCHAR
STARTCHAR Ocircumflex
ENCODING 212
SWIDTH 855 0
DWIDTH 12 0
BBX 11 12 0 0
BITMAP
1F00
0000
1F00
71C0
60C0
C060
C060
C060
C060
60C0
71C0
1F00
ENDCHAR
STARTCHAR Otilde
ENCODING 213
SWIDTH 855 0
DWIDTH 12 0
BBX 11 12 0 0
BITMAP
1F00
0000
1F00
71C0
60C0
C060
C060
C060
C060
60C0
71C0
1F00
ENDCHAR
STARTCHAR Odieresis
ENCODING 214
SWIDTH 855 0
DWIDTH 12 0
BBX 11 12 0 0
BITMAP
1B00
0000
1F00
71C0
60C0
C060
C060
C060
C060
60C0
71C0
1F00
ENDCHAR
STARTCHAR multiply
ENCODING 215
SWIDTH 687 0
DWIDTH 10 0
BBX 8 8 1 0
BITMAP
C1
43
24
18
18
24
C2
83
ENDCHAR
STARTCHAR Oslash
ENCODING 216
SWIDTH 855 0
DWIDTH 12 0
BBX 11 10 0 0
BITMAP
1F60
71C0
61C0
C260
C660
CC60
D860
70C0
71C0
DF00
ENDCHAR
STARTCHAR Ugrave
ENCODING 217
SWIDTH 783 0
DWIDTH 11 0
BBX 9 12 1 0
BITMAP
3C00
0000
C180
C180
C180
C180
C180
C180
C180
C180
6300
3E00
ENDCHAR
STARTCHAR Uacute
ENCODING 218
SWIDTH 783 0
DWIDTH 11 0
BBX 9 12 1 0
BITMAP
1E00
0000
C180
C180
C180
C180
C180
C180
C180
C180
6300
3E00
ENDCHAR
STARTCHAR Ucircumflex
ENCODING 219
SWIDTH 783 0
DWIDTH 11 0
BBX 9 12 1 0
BITMAP
3E00
0000
C180
C180
C180
C180
C180
C180
C180
C180
6300
3E00
ENDCHAR
STARTCHAR Udieresis
ENCODING 220
SWIDTH 783 0
DWIDTH 11 0
BBX 9 12 1 0
BITMAP
3600
0000
C180
C180
C180
C180
C180
C180
C180
C180
6300
3E00
ENDCHAR
STARTCHAR Yacute
ENCODING 221
SWIDTH 738 0
DWIDTH 10 0
BBX 8 12 1 0
BITMAP
1E
00
E3
62
74
34
38
18
18
18
18
18
ENDCHAR
STARTCHAR Thorn
ENCODING 222
SWIDTH 657 0
DWIDTH 9 0
BBX 7 10 1 0
BITMAP
C0
C0
FC
CE
C6
C6
CC
F8
C0
C0
ENDCHAR
STARTCHAR germandbls
ENCODING 223
SWIDTH 724 0
DWIDTH 10 0
BBX 9 10 1 0
BITMAP
3C00
CE00
CC00
D800
D800
DE00
CF00
C380
D180
DF00
ENDCHAR
STARTCHAR agrave
ENCODING 224
SWIDTH 623 0
DWIDTH 9 0
BBX 8 9 0 0
BITMAP
3C
00
7C
46
7E
E6
C6
CF
77
ENDCHAR
STARTCHAR aacute
ENCODING 225
SWIDTH 623 0
DWIDTH 9 0
BBX 8 9 0 0
BITMAP
1E
00
7C
46
7E
E6
C6
CF
77
ENDCHAR
STARTCHAR acircumflex
ENCODING 226
SWIDTH 623 0
DWIDTH 9 0
BBX 8 9 0 0
BITMAP
3E
00
7C
46
7E
E6
C6
CF
77
ENDCHAR
STARTCHAR atilde
ENCODING 227
SWIDTH 623 0
DWIDTH 9 0
BBX 8 9 0 0
BITMAP
3E
00
7C
46
7E
E6
C6
CF
77
ENDCHAR
STARTCHAR adieresis
ENCODING 228
SWIDTH 623 0
DWIDTH 9 0
BBX 8 9 0 0
BITMAP
36
00
7C
46
7E
E6
C6
CF
77
ENDCHAR
STARTCHAR aring
ENCODING 229
SWIDTH 623 0
DWIDTH 9 0
BBX 8 9 0 0
BITMAP
18
00
7C
46
7E
E6
C6
CF
77
ENDCHAR
STARTCHAR ae
ENCODING 230
SWIDTH 913 0
DWIDTH 13 0
BBX 12 7 0 0
BITMAP
7FE0
4E30
0630
7FF0
C600
CF00
7BF0
ENDCHAR
STARTCHAR ccedilla
ENCODING 231
SWIDTH 545 0
DWIDTH 8 0
BBX 6 10 1 -3
BITMAP
3C
60
C0
C0
C0
60
3C
10
10
38
ENDCHAR
STARTCHAR egrave
ENCODING 232
SWIDTH 614 0
DWIDTH 9 0
BBX 8 9 0 0
BITMAP
3C
00
3E
63
C3
FF
E0
70
3F
ENDCHAR
STARTCHAR eacute
ENCODING 233
SWIDTH 614 0
DWIDTH 9 0
BBX 8 9 0 0
BITMAP
1E
00
3E
63
C3
FF
E0
70
3F
ENDCHAR
STARTCHAR ecircumflex
ENCODING 234
SWIDTH 614 0
DWIDTH 9 0
BBX 8 9 0 0
BITMAP
3E
00
3E
63
C3
FF
E0
70
3F
ENDCHAR
STARTCHAR edieresis
ENCODING 235
SWIDTH 614 0
DWIDTH 9 0
BBX 8 9 0 0
BITMAP
36
00
3E
63
C3
FF
E0
70
3F
ENDCHAR
STARTCHAR igrave
ENCODING 236
SWIDTH 361 0
DWIDTH 5 0
BBX 4 9 3 0
BITMAP
F0
00
60
60
60
60
60
60
60
ENDCHAR
STARTCHAR iacute
ENCODING 237
SWIDTH 361 0
DWIDTH 5 0
BBX 4 9 2 0
BITMAP
F0
00
C0
C0
C0
C0
C0
C0
C0
ENDCHAR
STARTCHAR icircumflex
ENCODING 238
SWIDTH 361 0
DWIDTH 5 0
BBX 5 9 3 0
BITMAP
F8
00
60
60
60
60
60
60
60
ENDCHAR
STARTCHAR idieresis
ENCODING 239
SWIDTH 361 0
DWIDTH 5 0
BBX 5 9 3 0
BITMAP
D8
00
60
60
60
60
60
60
60
ENDCHAR
STARTCHAR eth
ENCODING 240
SWIDTH 675 0
DWIDTH 9 0
BBX 8 12 1 0
BITMAP
04
08
F8
7C
46
7F
67
C3
C3
C3
66
3C
ENDCHAR
STARTCHAR ntilde
ENCODING 241
SWIDTH 693 0
DWIDTH 10 0
BBX 7 9 1 0
BITMAP
7C
00
DC
E6
C6
C6
C6
C6
C6
ENDCHAR
STARTCHAR ograve
ENCODING 242
SWIDTH 675 0
DWIDTH 9 0
BBX 8 9 1 0
BITMAP
3C
00
3C
66
C3
C3
C3
66
3C
ENDCHAR
STARTCHAR oacute
ENCODING 243
SWIDTH 675 0
DWIDTH 9 0
BBX 8 9 1 0
BITMAP
1E
00
3C
66
C3
C3
C3
66
3C
ENDCHAR
STARTCHAR ocircumflex
ENCODING 244
SWIDTH 675 0
DWIDTH 9 0
BBX 8 9 1 0
BITMAP
3E
00
3C
66
C3
C3
C3
66
3C
ENDCHAR
STARTCHAR otilde
ENCODING 245
SWIDTH 675 0
DWIDTH 9 0
BBX 8 9 1 0
BITMAP
3E
00
3C
66
C3
C3
C3
66
3C
ENDCHAR
STARTCHAR odieresis
ENCODING 246
SWIDTH 675 0
DWIDTH 9 0
BBX 8 9 1 0
BITMAP
36
00
3C
66
C3
C3
C3
66
3C
ENDCHAR
STARTCHAR divide
ENCODING 247
SWIDTH 687 0
DWIDTH 10 0
BBX 8 8 1 0
BITMAP
10
00
00
FF
00
00
00
10
ENDCHAR
STARTCHAR oslash
ENCODING 248
SWIDTH 675 0
DWIDTH 9 0
BBX 9 7 1 0
BITMAP
3D80
6600
C700
CB00
D300
6600
FC00
ENDCHAR
STARTCHAR ugrave
ENCODING 249
SWIDTH 693 0
DWIDTH 10 0
BBX 7 9 1 0
BITMAP
78
00
C6
C6
C6
C6
C6
CE
76
ENDCHAR
STARTCHAR uacute
ENCODING 250
SWIDTH 693 0
DWIDTH 10 0
BBX 7 9 1 0
BITMAP
3C
00
C6
C6
C6
C6
C6
CE
76
ENDCHAR
STARTCHAR ucircumflex
ENCODING 251
SWIDTH 693 0
DWIDTH 10 0
BBX 7 9 1 0
BITMAP
7C
00
C6
C6
C6
C6
C6
CE
76
ENDCHAR
STARTCHAR udieresis
ENCODING 252
SWIDTH 693 0
DWIDTH 10 0
BBX 7 9 1 0
BITMAP
6C
00
C6
C6
C6
C6
C6
CE
76
ENDCHAR
STARTCHAR yacute
ENCODING 253
SWIDTH 645 0
DWIDTH 9 0
BBX 9 12 0 -3
BITMAP
1E00
0000
E180
6100
7200
3200
3400
1C00
1800
1800
3000
7000
ENDCHAR
STARTCHAR thorn
ENCODING 254
SWIDTH 696 0
DWIDTH 10 0
BBX 8 13 1 -3
BITMAP
C0
C0
C0
DE
E7
C3
C3
C3
C6
FC
C0
C0
C0
ENDCHAR
STARTCHAR ydieresis
ENCODING 255
SWIDTH 645 0
DWIDTH 9 0
BBX 9 12 0 -3
BITMAP
3600
0000
E180
6100
7200
3200
3400
1C00
1800
1800
3000
7000
ENDCHAR
STARTCHAR Amacron
ENCODING 256
SWIDTH 773 0
DWIDTH 11 0
BBX 10 12 0 0
BITMAP
1F00
0000
0C00
1600
1600
1600
2300
2300
3F00
4180
4180
C1C0
ENDCHAR
STARTCHAR amacron
ENCODING 257
SWIDTH 623 0
DWIDTH 9 0
BBX 8 9 0 0
BITMAP
7C
00
7C
46
7E
E6
C6
CF
77
ENDCHAR
STARTCHAR Abreve
ENCODING 258
SWIDTH 773 0
DWIDTH 11 0
BBX 10 12 0 0
BITMAP
1F00
0000
0C00
1600
1600
1600
2300
2300
3F00
4180
4180
C1C0
ENDCHAR
STARTCHAR abreve
ENCODING 259
SWIDTH 623 0
DWIDTH 9 0
BBX 8 9 0 0
BITMAP
7C
00
7C
46
7E
E6
C6
CF
77
ENDCHAR
STARTCHAR Aogonek
ENCODING 260
SWIDTH 773 0
DWIDTH 11 0
BBX 10 13 0 -3
BITMAP
0C00
1600
1600
1600
2300
2300
3F00
4180
4180
C1C0
0000
0000
0E00
ENDCHAR
STARTCHAR aogonek
ENCODING 261
SWIDTH 623 0
DWIDTH 9 0
BBX 8 10 0 -3
BITMAP
7C
46
7E
E6
C6
CF
77
00
00
1C
ENDCHAR
STARTCHAR Cacute
ENCODING 262
SWIDTH 726 0
DWIDTH 10 0
BBX 9 12 1 0
BITMAP
1E00
0000
1F80
7080
6000
C000
C000
C000
C000
6000
7080
1F80
ENDCHAR
STARTCHAR cacute
ENCODING 263
SWIDTH 545 0
DWIDTH 8 0
BBX 6 9 1 0
BITMAP
78
00
3C
60
C0
C0
C0
60
3C
ENDCHAR
STARTCHAR Ccircumflex
ENCODING 264
SWIDTH 726 0
DWIDTH 10 0
BBX 9 12 1 0
BITMAP
3E00
0000
1F80
7080
6000
C000
C000
C000
C000
6000
7080
1F80
ENDCHAR
STARTCHAR ccircumflex
ENCODING 265
SWIDTH 545 0
DWIDTH 8 0
BBX 6 9 1 0
BITMAP
7C
00
3C
60
C0
C0
C0
60
3C
ENDCHAR
STARTCHAR Cdotaccent
ENCODING 266
SWIDTH 726 0
DWIDTH 10 0
BBX 9 12 1 0
BITMAP
0C00
0000
1F80
7080
6000
C000
C000
C000
C000
6000
7080
1F80
ENDCHAR
STARTCHAR cdotaccent
ENCODING 267
SWIDTH 545 0
DWIDTH 8 0
BBX 6 9 1 0
BITMAP
30
00
3C
60
C0
C0
C0
60
3C
ENDCHAR
STARTCHAR Ccaron
ENCODING 268
SWIDTH 726 0
DWIDTH 10 0
BBX 9 12 1 0
BITMAP
3E00
0000
1F80
7080
6000
C000
C000
C000
C000
6000
7080
1F80
ENDCHAR
STARTCHAR ccaron
ENCODING 269
SWIDTH 545 0
DWIDTH 8 0
BBX 6 9 1 0
BITMAP
7C
00
3C
60
C0
C0
C0
60
3C
ENDCHAR
STARTCHAR Dcaron
ENCODING 270
SWIDTH 819 0
DWIDTH 11 0
BBX 10 12 1 0
BITMAP
3E00
0000
FE00
C380
C180
C0C0
C0C0
C0C0
C0C0
C080
C180
FE00
ENDCHAR
STARTCHAR dcaron
ENCODING 271
SWIDTH 926 0
DWIDTH 14 0
BBX 12 10 1 0
BITMAP
0370
0370
0330
3F60
6300
C300
C300
C300
E700
7B00
ENDCHAR
STARTCHAR Dcroat
ENCODING 272
SWIDTH 819 0
DWIDTH 11 0
BBX 11 10 0 0
BITMAP
7F00
61C0
60C0
6060
F860
6060
6060
6040
60C0
7F00
ENDCHAR
STARTCHAR dcroat
ENCODING 273
SWIDTH 696 0
DWIDTH 10 0
BBX 8 10 1 0
BITMAP
03
1F
03
3F
63
C3
C3
C3
E7
7B
ENDCHAR
STARTCHAR Emacron
ENCODING 274
SWIDTH 645 0
DWIDTH 9 0
BBX 7 12 1 0
BITMAP
F8
00
FE
C0
C0
C0
FC
C0
C0
C0
C0
FE
ENDCHAR
STARTCHAR emacron
ENCODING 275
SWIDTH 614 0
DWIDTH 9 0
BBX 8 9 0 0
BITMAP
3E
00
3E
63
C3
FF
E0
70
3F
ENDCHAR
STARTCHAR Ebreve
ENCODING 276
SWIDTH 645 0
DWIDTH 9 0
BBX 7 12 1 0
BITMAP
F8
00
FE
C0
C0
C0
FC
C0
C0
C0
C0
FE
ENDCHAR
STARTCHAR ebreve
ENCODING 277
SWIDTH 614 0
DWIDTH 9 0
BBX 8 9 0 0
BITMAP
3E
00
3E
63
C3
FF
E0
70
3F
ENDCHAR
STARTCHAR Edotaccent
ENCODING 278
SWIDTH 645 0
DWIDTH 9 0
BBX 7 12 1 0
BITMAP
30
00
FE
C0
C0
C0
FC
C0
C0
C0
C0
FE
ENDCHAR
STARTCHAR edotaccent
ENCODING 279
SWIDTH 614 0
DWIDTH 9 0
BBX 8 9 0 0
BITMAP
18
00
3E
63
C3
FF
E0
70
3F
ENDCHAR
STARTCHAR Eogonek
ENCODING 280
SWIDTH 645 0
DWIDTH 9 0
BBX 7 13 1 -3
BITMAP
FE
C0
C0
C0
FC
C0
C0
C0
C0
FE
00
00
70
ENDCHAR
STARTCHAR eogonek
ENCODING 281
SWIDTH 614 0
DWIDTH 9 0
BBX 8 10 0 -3
BITMAP
3E
63
C3
FF
E0
70
3F
00
00
1C
ENDCHAR
STARTCHAR Ecaron
ENCODING 282
SWIDTH 645 0
DWIDTH 9 0
BBX 7 12 1 0
BITMAP
F8
00
FE
C0
C0
C0
FC
C0
C0
C0
C0
FE
ENDCHAR
STARTCHAR ecaron
ENCODING 283
SWIDTH 614 0
DWIDTH 9 0
BBX 8 9 0 0
BITMAP
3E
00
3E
63
C3
FF
E0
70
3F
ENDCHAR
STARTCHAR Gcircumflex
ENCODING 284
SWIDTH 759 0
DWIDTH 11 0
BBX 9 12 1 0
BITMAP
3E00
0000
1F80
7080
6000
C000
C000
C000
C180
6180
7180
1F80
ENDCHAR
STARTCHAR gcircumflex
ENCODING 285
SWIDTH 696 0
DWIDTH 10 0
BBX 8 12 1 -3
BITMAP
3E
00
7F
63
C3
C3
C3
E7
7B
03
47
7C
ENDCHAR
STARTCHAR Gbreve
ENCODING 286
SWIDTH 759 0
DWIDTH 11 0
BBX 9 12 1 0
BITMAP
3E00
0000
1F80
7080
6000
C000
C000
C000
C180
6180
7180
1F80
ENDCHAR
STARTCHAR gbreve
ENCODING 287
SWIDTH 696 0
DWIDTH 10 0
BBX 8 12 1 -3
BITMAP
3E
00
7F
63
C3
C3
C3
E7
7B
03
47
7C
ENDCHAR
STARTCHAR Gdotaccent
ENCODING 288
SWIDTH 759 0
DWIDTH 11 0
BBX 9 12 1 0
BITMAP
0C00
0000
1F80
7080
6000
C000
C000
C000
C180
6180
7180
1F80
ENDCHAR
STARTCHAR gdotaccent
ENCODING 289
SWIDTH 696 0
DWIDTH 10 0
BBX 8 12 1 -3
BITMAP
18
00
7F
63
C3
C3
C3
E7
7B
03
47
7C
ENDCHAR
STARTCHAR Gcommaaccent
ENCODING 290
SWIDTH 759 0
DWIDTH 11 0
BBX 9 16 1 -6
BITMAP
1F80
7080
6000
C000
C000
C000
C180
6180
7180
1F80
0000
0E00
0E00
0600
0600
0C00
ENDCHAR
STARTCHAR gcommaaccent
ENCODING 291
SWIDTH 696 0
DWIDTH 10 0
BBX 8 15 1 -3
BITMAP
0C
18
1C
1C
00
7F
63
C3
C3
C3
E7
7B
03
47
7C
ENDCHAR
STARTCHAR Hcircumflex
ENCODING 292
SWIDTH 813 0
DWIDTH 11 0
BBX 9 12 1 0
BITMAP
3E00
0000
C180
C180
C180
C180
FF80
C180
C180
C180
C180
C180
ENDCHAR
STARTCHAR hcircumflex
ENCODING 293
SWIDTH 693 0
DWIDTH 10 0
BBX 8 12 0 0
BITMAP
F8
00
60
60
60
6E
73
63
63
63
63
63
ENDCHAR
STARTCHAR Hbar
ENCODING 294
SWIDTH 813 0
DWIDTH 11 0
BBX 9 10 1 0
BITMAP
C180
C180
FF80
C180
FF80
C180
C180
C180
C180
C180
ENDCHAR
STARTCHAR hbar
ENCODING 295
SWIDTH 693 0
DWIDTH 10 0
BBX 7 10 1 0
BITMAP
C0
F8
C0
DC
E6
C6
C6
C6
C6
C6
ENDCHAR
STARTCHAR Itilde
ENCODING 296
SWIDTH 361 0
DWIDTH 5 0
BBX 5 12 1 0
BITMAP
F8
00
60
60
60
60
60
60
60
60
60
60
ENDCHAR
STARTCHAR itilde
ENCODING 297
SWIDTH 361 0
DWIDTH 5 0
BBX 5 9 1 0
BITMAP
F8
00
60
60
60
60
60
60
60
ENDCHAR
STARTCHAR Imacron
ENCODING 298
SWIDTH 361 0
DWIDTH 5 0
BBX 5 12 1 0
BITMAP
F8
00
60
60
60
60
60
60
60
60
60
60
ENDCHAR
STARTCHAR imacron
ENCODING 299
SWIDTH 361 0
DWIDTH 5 0
BBX 5 9 1 0
BITMAP
F8
00
60
60
60
60
60
60
60
ENDCHAR
STARTCHAR Ibreve
ENCODING 300
SWIDTH 361 0
DWIDTH 5 0
BBX 5 12 1 0
BITMAP
F8
00
60
60
60
60
60
60
60
60
60
60
ENDCHAR
STARTCHAR ibreve
ENCODING 301
SWIDTH 361 0
DWIDTH 5 0
BBX 5 9 1 0
BITMAP
F8
00
60
60
60
60
60
60
60
ENDCHAR
STARTCHAR Iogonek
ENCODING 302
SWIDTH 361 0
DWIDTH 5 0
BBX 3 13 2 -3
BITMAP
C0
C0
C0
C0
C0
C0
C0
C0
C0
C0
00
00
E0
ENDCHAR
STARTCHAR iogonek
ENCODING 303
SWIDTH 361 0
DWIDTH 5 0
BBX 3 13 2 -3
BITMAP
C0
00
00
C0
C0
C0
C0
C0
C0
C0
00
00
E0
ENDCHAR
STARTCHAR Idotaccent
ENCODING 304
SWIDTH 361 0
DWIDTH 5 0
BBX 2 12 2 0
BITMAP
C0
00
C0
C0
C0
C0
C0
C0
C0
C0
C0
C0
ENDCHAR
STARTCHAR dotlessi
ENCODING 305
SWIDTH 361 0
DWIDTH 5 0
BBX 2 7 2 0
BITMAP
C0
C0
C0
C0
C0
C0
C0
ENDCHAR
STARTCHAR IJ
ENCODING 306
SWIDTH 844 0
DWIDTH 12 0
BBX 9 13 2 -3
BITMAP
C180
C180
C180
C180
C180
C180
C180
C180
C180
C180
0180
0180
0F00
ENDCHAR
STARTCHAR ij
ENCODING 307
SWIDTH 704 0
DWIDTH 10 0
BBX 8 13 2 -3
BITMAP
C3
00
00
C3
C3
C3
C3
C3
C3
C3
03
13
1E
ENDCHAR
STARTCHAR Jcircumflex
ENCODING 308
SWIDTH 501 0
DWIDTH 7 0
BBX 6 15 1 -3
BITMAP
7C
00
18
18
18
18
18
18
18
18
18
18
18
18
F0
ENDCHAR
STARTCHAR jcircumflex
ENCODING 309
SWIDTH 361 0
DWIDTH 5 0
BBX 6 12 0 -3
BITMAP
7C
00
18
18
18
18
18
18
18
18
98
F0
ENDCHAR
STARTCHAR Kcommaaccent
ENCODING 310
SWIDTH 753 0
DWIDTH 11 0
BBX 9 16 1 -6
BITMAP
C300
C600
CC00
D800
D000
F800
DC00
CE00
C600
C380
0000
1C00
1C00
0C00
0C00
1800
ENDCHAR
STARTCHAR kcommaaccent
ENCODING 311
SWIDTH 681 0
DWIDTH 10 0
BBX 7 16 2 -6
BITMAP
C0
C0
C0
CC
C8
D0
F0
D8
DC
CE
00
38
38
18
18
30
ENDCHAR
STARTCHAR kgreenlandic
ENCODING 312
SWIDTH 681 0
DWIDTH 10 0
BBX 7 7 2 0
BITMAP
CC
C8
D0
F0
D8
DC
CE
ENDCHAR
STARTCHAR Lacute
ENCODING 313
SWIDTH 620 0
DWIDTH 9 0
BBX 7 12 1 0
BITMAP
F0
00
C0
C0
C0
C0
C0
C0
C0
C0
C0
FE
ENDCHAR
STARTCHAR lacute
ENCODING 314
SWIDTH 361 0
DWIDTH 5 0
BBX 4 12 1 0
BITMAP
F0
00
60
60
60
60
60
60
60
60
60
60
ENDCHAR
STARTCHAR Lcommaaccent
ENCODING 315
SWIDTH 620 0
DWIDTH 9 0
BBX 7 16 1 -6
BITMAP
C0
C0
C0
C0
C0
C0
C0
C0
C0
FE
00
70
70
30
30
60
ENDCHAR
STARTCHAR lcommaaccent
ENCODING 316
SWIDTH 361 0
DWIDTH 5 0
BBX 3 16 2 -6
BITMAP
C0
C0
C0
C0
C0
C0
C0
C0
C0
C0
00
E0
E0
60
60
C0
ENDCHAR
STARTCHAR Lcaron
ENCODING 317
SWIDTH 854 0
DWIDTH 13 0
BBX 11 10 1 0
BITMAP
C0E0
C0E0
C060
C0C0
C000
C000
C000
C000
C000
FE00
ENDCHAR
STARTCHAR lcaron
ENCODING 318
SWIDTH 608 0
DWIDTH 9 0
BBX 6 10 2 0
BITMAP
DC
DC
CC
D8
C0
C0
C0
C0
C0
C0
ENDCHAR
STARTCHAR Ldot
ENCODING 319
SWIDTH 932 0
DWIDTH 19 0
BBX 14 10 1 0
BITMAP
C000
C000
C000
C000
C000
C00C
C000
C000
C000
FE00
ENDCHAR
STARTCHAR ldot
ENCODING 320
SWIDTH 686 0
DWIDTH 15 0
BBX 9 10 2 0
BITMAP
C000
C000
C000
C000
C000
C180
C000
C000
C000
C000
ENDCHAR
STARTCHAR Lslash
ENCODING 321
SWIDTH 620 0
DWIDTH 9 0
BBX 8 10 0 0
BITMAP
60
60
60
70
70
E0
E0
E0
60
7F
ENDCHAR
STARTCHAR lslash
ENCODING 322
SWIDTH 361 0
DWIDTH 5 0
BBX 4 10 1 0
BITMAP
60
60
60
70
70
E0
E0
60
60
60
ENDCHAR
STARTCHAR Nacute
ENCODING 323
SWIDTH 783 0
DWIDTH 11 0
BBX 9 12 1 0
BITMAP
3C00
0000
C080
E080
F080
B080
9880
8C80
8680
8780
8380
8180
ENDCHAR
STARTCHAR nacute
ENCODING 324
SWIDTH 693 0
DWIDTH 10 0
BBX 7 9 1 0
BITMAP
78
00
DC
E6
C6
C6
C6
C6
C6
ENDCHAR
STARTCHAR Ncommaaccent
ENCODING 325
SWIDTH 783 0
DWIDTH 11 0
BBX 9 16 1 -6
BITMAP
C080
E080
F080
B080
9880
8C80
8680
8780
8380
8180
0000
0E00
0E00
0600
0600
0C00
ENDCHAR
STARTCHAR ncommaaccent
ENCODING 326
SWIDTH 693 0
DWIDTH 10 0
BBX 7 13 1 -6
BITMAP
DC
E6
C6
C6
C6
C6
C6
00
38
38
18
18
30
ENDCHAR
STARTCHAR Ncaron
ENCODING 327
SWIDTH 783 0
DWIDTH 11 0
BBX 9 12 1 0
BITMAP
7C00
0000
C080
E080
F080
B080
9880
8C80
8680
8780
8380
8180
ENDCHAR
STARTCHAR ncaron
ENCODING 328
SWIDTH 693 0
DWIDTH 10 0
BBX 7 9 1 0
BITMAP
7C
00
DC
E6
C6
C6
C6
C6
C6
ENDCHAR
STARTCHAR napostrophe
ENCODING 329
SWIDTH 945 0
DWIDTH 14 0
BBX 12 10 0 0
BITMAP
E000
E000
6000
C6E0
0730
0630
0630
0630
0630
0630
ENDCHAR
STARTCHAR Eng
ENCODING 330
SWIDTH 783 0
DWIDTH 11 0
BBX 9 13 1 -3
BITMAP
C080
E080
F080
B080
9880
8C80
8680
8780
8380
8180
0180
0980
0F00
ENDCHAR
STARTCHAR eng
ENCODING 331
SWIDTH 693 0
DWIDTH 10 0
BBX 7 10 1 -3
BITMAP
DC
E6
C6
C6
C6
C6
C6
06
26
3C
ENDCHAR
STARTCHAR Omacron
ENCODING 332
SWIDTH 855 0
DWIDTH 12 0
BBX 11 12 0 0
BITMAP
1F00
0000
1F00
71C0
60C0
C060
C060
C060
C060
60C0
71C0
1F00
ENDCHAR
STARTCHAR omacron
ENCODING 333
SWIDTH 675 0
DWIDTH 9 0
BBX 8 9 1 0
BITMAP
3E
00
3C
66
C3
C3
C3
66
3C
ENDCHAR
STARTCHAR Obreve
ENCODING 334
SWIDTH 855 0
DWIDTH 12 0
BBX 11 12 0 0
BITMAP
1F00
0000
1F00
71C0
60C0
C060
C060
C060
C060
60C0
71C0
1F00
ENDCHAR
STARTCHAR obreve
ENCODING 335
SWIDTH 675 0
DWIDTH 9 0
BBX 8 9 1 0
BITMAP
3E
00
3C
66
C3
C3
C3
66
3C
ENDCHAR
STARTCHAR Ohungarumlaut
ENCODING 336
SWIDTH 855 0
DWIDTH 12 0
BBX 11 12 0 0
BITMAP
1F00
0000
1F00
71C0
60C0
C060
C060
C060
C060
60C0
71C0
1F00
ENDCHAR
STARTCHAR ohungarumlaut
ENCODING 337
SWIDTH 675 0
DWIDTH 9 0
BBX 8 9 1 0
BITMAP
3E
00
3C
66
C3
C3
C3
66
3C
ENDCHAR
STARTCHAR OE
ENCODING 338
SWIDTH 1102 0
DWIDTH 15 0
BBX 15 10 0 0
BITMAP
1FFE
71C0
60C0
C0C0
C0FC
C0C0
C0C0
60C0
71C0
1FFE
ENDCHAR
STARTCHAR oe
ENCODING 339
SWIDTH 990 0
DWIDTH 14 0
BBX 13 7 0 0
BITMAP
3FE0
6710
C618
C7F8
C700
6780
3FF8
ENDCHAR
STARTCHAR Racute
ENCODING 340
SWIDTH 734 0
DWIDTH 10 0
BBX 9 12 1 0
BITMAP
3C00
0000
FE00
C300
C300
C300
C600
F800
CC00
CE00
C600
C780
ENDCHAR
STARTCHAR racute
ENCODING 341
SWIDTH 500 0
DWIDTH 7 0
BBX 5 9 1 0
BITMAP
78
00
D8
F8
C0
C0
C0
C0
C0
ENDCHAR
STARTCHAR Rcommaaccent
ENCODING 342
SWIDTH 734 0
DWIDTH 10 0
BBX 9 16 1 -6
BITMAP
FE00
C300
C300
C300
C600
F800
CC00
CE00
C600
C780
0000
1C00
1C00
0C00
0C00
1800
ENDCHAR
STARTCHAR rcommaaccent
ENCODING 343
SWIDTH 500 0
DWIDTH 7 0
BBX 5 13 1 -6
BITMAP
D8
F8
C0
C0
C0
C0
C0
00
E0
E0
60
60
C0
ENDCHAR
STARTCHAR Rcaron
ENCODING 344
SWIDTH 734 0
DWIDTH 10 0
BBX 9 12 1 0
BITMAP
3E00
0000
FE00
C300
C300
C300
C600
F800
CC00
CE00
C600
C780
ENDCHAR
STARTCHAR rcaron
ENCODING 345
SWIDTH 500 0
DWIDTH 7 0
BBX 5 9 1 0
BITMAP
F8
00
D8
F8
C0
C0
C0
C0
C0
ENDCHAR
STARTCHAR Sacute
ENCODING 346
SWIDTH 594 0
DWIDTH 8 0
BBX 7 12 1 0
BITMAP
78
00
7C
E4
E0
E0
78
1C
06
06
86
F8
ENDCHAR
STARTCHAR sacute
ENCODING 347
SWIDTH 622 0
DWIDTH 9 0
BBX 7 9 1 0
BITMAP
78
00
7C
E0
F8
FE
3E
8E
FC
ENDCHAR
STARTCHAR Scircumflex
ENCODING 348
SWIDTH 594 0
DWIDTH 8 0
BBX 7 12 1 0
BITMAP
F8
00
7C
E4
E0
E0
78
1C
06
06
86
F8
ENDCHAR
STARTCHAR scircumflex
ENCODING 349
SWIDTH 622 0
DWIDTH 9 0
BBX 7 9 1 0
BITMAP
7C
00
7C
E0
F8
FE
3E
8E
FC
ENDCHAR
STARTCHAR Scedilla
ENCODING 350
SWIDTH 594 0
DWIDTH 8 0
BBX 7 13 1 -3
BITMAP
7C
E4
E0
E0
78
1C
06
06
86
F8
30
10
38
ENDCHAR
STARTCHAR scedilla
ENCODING 351
SWIDTH 622 0
DWIDTH 9 0
BBX 7 10 1 -3
BITMAP
7C
E0
F8
FE
3E
8E
FC
30
10
38
ENDCHAR
STARTCHAR Scaron
ENCODING 352
SWIDTH 594 0
DWIDTH 8 0
BBX 7 12 1 0
BITMAP
7C
00
7C
E4
E0
E0
78
1C
06
06
86
F8
ENDCHAR
STARTCHAR scaron
ENCODING 353
SWIDTH 622 0
DWIDTH 9 0
BBX 7 9 1 0
BITMAP
7C
00
7C
E0
F8
FE
3E
8E
FC
ENDCHAR
STARTCHAR Tcommaaccent
ENCODING 354
SWIDTH 735 0
DWIDTH 10 0
BBX 10 13 0 -3
BITMAP
FFC0
0C00
0C00
0C00
0C00
0C00
0C00
0C00
0C00
0C00
0C00
0400
0E00
ENDCHAR
STARTCHAR tcommaaccent
ENCODING 355
SWIDTH 436 0
DWIDTH 6 0
BBX 5 12 1 -3
BITMAP
60
60
F8
60
60
60
60
68
38
30
10
38
ENDCHAR
STARTCHAR Tcaron
ENCODING 356
SWIDTH 735 0
DWIDTH 10 0
BBX 10 12 0 0
BITMAP
1F00
0000
FFC0
0C00
0C00
0C00
0C00
0C00
0C00
0C00
0C00
0C00
ENDCHAR
STARTCHAR tcaron
ENCODING 357
SWIDTH 679 0
DWIDTH 10 0
BBX 8 10 1 0
BITMAP
07
67
63
FE
60
60
60
60
68
38
ENDCHAR
STARTCHAR Tbar
ENCODING 358
SWIDTH 735 0
DWIDTH 10 0
BBX 10 10 0 0
BITMAP
FFC0
0C00
0C00
0C00
1F00
0C00
0C00
0C00
0C00
0C00
ENDCHAR
STARTCHAR tbar
ENCODING 359
SWIDTH 436 0
DWIDTH 6 0
BBX 5 9 1 0
BITMAP
60
60
F8
60
60
F8
60
68
38
ENDCHAR
STARTCHAR Utilde
ENCODING 360
SWIDTH 783 0
DWIDTH 11 0
BBX 9 12 1 0
BITMAP
3E00
0000
C180
C180
C180
C180
C180
C180
C180
C180
6300
3E00
ENDCHAR
STARTCHAR utilde
ENCODING 361
SWIDTH 693 0
DWIDTH 10 0
BBX 7 9 1 0
BITMAP
7C
00
C6
C6
C6
C6
C6
CE
76
ENDCHAR
STARTCHAR Umacron
ENCODING 362
SWIDTH 783 0
DWIDTH 11 0
BBX 9 12 1 0
BITMAP
3E00
0000
C180
C180
C180
C180
C180
C180
C180
C180
6300
3E00
ENDCHAR
STARTCHAR umacron
ENCODING 363
SWIDTH 693 0
DWIDTH 10 0
BBX 7 9 1 0
BITMAP
7C
00
C6
C6
C6
C6
C6
CE
76
ENDCHAR
STARTCHAR Ubreve
ENCODING 364
SWIDTH 783 0
DWIDTH 11 0
BBX 9 12 1 0
BITMAP
3E00
0000
C180
C180
C180
C180
C180
C180
C180
C180
6300
3E00
ENDCHAR
STARTCHAR ubreve
ENCODING 365
SWIDTH 693 0
DWIDTH 10 0
BBX 7 9 1 0
BITMAP
7C
00
C6
C6
C6
C6
C6
CE
76
ENDCHAR
STARTCHAR Uring
ENCODING 366
SWIDTH 783 0
DWIDTH 11 0
BBX 9 12 1 0
BITMAP
0C00
0000
C180
C180
C180
C180
C180
C180
C180
C180
6300
3E00
ENDCHAR
STARTCHAR uring
ENCODING 367
SWIDTH 693 0
DWIDTH 10 0
BBX 7 9 1 0
BITMAP
18
00
C6
C6
C6
C6
C6
CE
76
ENDCHAR
STARTCHAR Uhungarumlaut
ENCODING 368
SWIDTH 783 0
DWIDTH 11 0
BBX 9 12 1 0
BITMAP
3E00
0000
C180
C180
C180
C180
C180
C180
C180
C180
6300
3E00
ENDCHAR
STARTCHAR uhungarumlaut
ENCODING 369
SWIDTH 693 0
DWIDTH 10 0
BBX 7 9 1 0
BITMAP
7C
00
C6
C6
C6
C6
C6
CE
76
ENDCHAR
STARTCHAR Uogonek
ENCODING 370
SWIDTH 783 0
DWIDTH 11 0
BBX 9 13 1 -3
BITMAP
C180
C180
C180
C180
C180
C180
C180
C180
6300
3E00
0000
0000
1C00
ENDCHAR
STARTCHAR uogonek
ENCODING 371
SWIDTH 693 0
DWIDTH 10 0
BBX 7 10 1 -3
BITMAP
C6
C6
C6
C6
C6
CE
76
00
00
38
ENDCHAR
STARTCHAR Wcircumflex
ENCODING 372
SWIDTH 940 0
DWIDTH 13 0
BBX 13 12 0 0
BITMAP
0F80
0000
C308
6310
6310
6590
65B0
35A0
35A0
39A0
38E0
18C0
ENDCHAR
STARTCHAR wcircumflex
ENCODING 373
SWIDTH 885 0
DWIDTH 12 0
BBX 12 9 0 0
BITMAP
1F00
0000
C730
6720
6720
6B60
79C0
39C0
31C0
ENDCHAR
STARTCHAR Ycircumflex
ENCODING 374
SWIDTH 738 0
DWIDTH 10 0
BBX 8 12 1 0
BITMAP
7C
00
E3
62
74
34
38
18
18
18
18
18
ENDCHAR
STARTCHAR ycircumflex
ENCODING 375
SWIDTH 645 0
DWIDTH 9 0
BBX 9 12 0 -3
BITMAP
3E00
0000
E180
6100
7200
3200
3400
1C00
1800
1800
3000
7000
ENDCHAR
STARTCHAR Ydieresis
ENCODING 376
SWIDTH 738 0
DWIDTH 10 0
BBX 8 12 1 0
BITMAP
36
00
E3
62
74
34
38
18
18
18
18
18
ENDCHAR
STARTCHAR Zacute
ENCODING 377
SWIDTH 675 0
DWIDTH 9 0
BBX 8 12 1 0
BITMAP
1E
00
FF
07
0E
0C
1C
38
30
70
E0
FF
ENDCHAR
STARTCHAR zacute
ENCODING 378
SWIDTH 608 0
DWIDTH 9 0
BBX 7 9 1 0
BITMAP
3C
00
FE
0E
1C
38
70
E0
FE
ENDCHAR
STARTCHAR Zdotaccent
ENCODING 379
SWIDTH 675 0
DWIDTH 9 0
BBX 8 12 1 0
BITMAP
0C
00
FF
07
0E
0C
1C
38
30
70
E0
FF
ENDCHAR
STARTCHAR zdotaccent
ENCODING 380
SWIDTH 608 0
DWIDTH 9 0
BBX 7 9 1 0
BITMAP
18
00
FE
0E
1C
38
70
E0
FE
ENDCHAR
STARTCHAR Zcaron
ENCODING 381
SWIDTH 675 0
DWIDTH 9 0
BBX 8 12 1 0
BITMAP
3E
00
FF
07
0E
0C
1C
38
30
70
E0
FF
ENDCHAR
STARTCHAR zcaron
ENCODING 382
SWIDTH 608 0
DWIDTH 9 0
BBX 7 9 1 0
BITMAP
7C
00
FE
0E
1C
38
70
E0
FE
ENDCHAR
STARTCHAR uni0186
ENCODING 390
SWIDTH 726 0
DWIDTH 10 0
BBX 9 10 1 0
BITMAP
FC00
8700
0300
0180
0180
0180
0180
0300
8700
FC00
ENDCHAR
STARTCHAR uni0189
ENCODING 393
SWIDTH 819 0
DWIDTH 11 0
BBX 11 10 0 0
BITMAP
7F00
61C0
60C0
6060
F860
6060
6060
6040
60C0
7F00
ENDCHAR
STARTCHAR uni018E
ENCODING 398
SWIDTH 645 0
DWIDTH 9 0
BBX 7 10 1 0
BITMAP
FE
06
06
06
06
7E
06
06
06
FE
ENDCHAR
STARTCHAR florin
ENCODING 402
SWIDTH 687 0
DWIDTH 10 0
BBX 8 13 2 -3
BITMAP
0F
19
38
38
FC
70
70
70
70
60
E0
E0
E0
ENDCHAR
STARTCHAR uni0197
ENCODING 407
SWIDTH 361 0
DWIDTH 5 0
BBX 5 10 1 0
BITMAP
60
60
60
60
F8
60
60
60
60
60
ENDCHAR
STARTCHAR uni019A
ENCODING 410
SWIDTH 361 0
DWIDTH 5 0
BBX 5 10 1 0
BITMAP
60
60
60
60
F8
60
60
60
60
60
ENDCHAR
STARTCHAR uni019D
ENCODING 413
SWIDTH 783 0
DWIDTH 11 0
BBX 12 13 -2 -3
BITMAP
1810
1C10
1E10
1610
1310
1190
10D0
18F0
1870
1830
1800
9800
F000
ENDCHAR
STARTCHAR uni019F
ENCODING 415
SWIDTH 855 0
DWIDTH 12 0
BBX 11 10 0 0
BITMAP
1F00
71C0
60C0
C060
FFE0
C060
C060
60C0
71C0
1F00
ENDCHAR
STARTCHAR Ohorn
ENCODING 416
SWIDTH 855 0
DWIDTH 12 0
BBX 13 10 0 0
BITMAP
1F38
71F8
60D8
C070
C060
C060
C060
60C0
71C0
1F00
ENDCHAR
STARTCHAR ohorn
ENCODING 417
SWIDTH 675 0
DWIDTH 9 0
BBX 11 7 1 0
BITMAP
3CE0
66E0
C360
C3C0
C300
6600
3C00
ENDCHAR
STARTCHAR uni01A7
ENCODING 423
SWIDTH 594 0
DWIDTH 8 0
BBX 7 10 1 0
BITMAP
7C
4E
0E
0E
3C
70
C0
C0
C2
3E
ENDCHAR
STARTCHAR uni01A8
ENCODING 424
SWIDTH 622 0
DWIDTH 9 0
BBX 7 7 1 0
BITMAP
7C
0E
3E
FE
F8
E2
7E
ENDCHAR
STARTCHAR uni01AE
ENCODING 430
SWIDTH 735 0
DWIDTH 10 0
BBX 10 13 0 -3
BITMAP
FFC0
0C00
0C00
0C00
0C00
0C00
0C00
0C00
0C00
0C00
0C00
0C80
0780
ENDCHAR
STARTCHAR Uhorn
ENCODING 431
SWIDTH 783 0
DWIDTH 11 0
BBX 11 10 1 0
BITMAP
C1E0
C1E0
C1E0
C1C0
C180
C180
C180
C180
6300
3E00
ENDCHAR
STARTCHAR uhorn
ENCODING 432
SWIDTH 693 0
DWIDTH 10 0
BBX 10 7 1 0
BITMAP
C7C0
C7C0
C6C0
C780
C600
CE00
7600
ENDCHAR
STARTCHAR uni01B5
ENCODING 437
SWIDTH 675 0
DWIDTH 9 0
BBX 8 10 1 0
BITMAP
FF
07
0E
0C
3E
38
30
70
E0
FF
ENDCHAR
STARTCHAR uni01B6
ENCODING 438
SWIDTH 608 0
DWIDTH 9 0
BBX 7 7 1 0
BITMAP
FE
0E
1C
7C
70
E0
FE
ENDCHAR
STARTCHAR uni01BB
ENCODING 443
SWIDTH 687 0
DWIDTH 10 0
BBX 8 10 1 0
BITMAP
FC
87
03
03
FF
0C
18
70
E0
FF
ENDCHAR
STARTCHAR uni01BC
ENCODING 444
SWIDTH 687 0
DWIDTH 10 0
BBX 7 10 2 0
BITMAP
FE
80
80
F8
0C
06
06
06
8C
F8
ENDCHAR
STARTCHAR uni01C0
ENCODING 448
SWIDTH 265 0
DWIDTH 4 0
BBX 1 13 1 -3
BITMAP
80
80
80
80
80
80
80
80
80
80
80
80
80
ENDCHAR
STARTCHAR uni01C2
ENCODING 450
SWIDTH 687 0
DWIDTH 10 0
BBX 8 13 1 -3
BITMAP
08
08
08
08
FF
08
08
08
FF
08
08
08
08
ENDCHAR
STARTCHAR uni01C3
ENCODING 451
SWIDTH 265 0
DWIDTH 5 0
BBX 2 10 1 0
BITMAP
C0
C0
C0
C0
C0
80
80
00
00
C0
ENDCHAR
STARTCHAR uni01CD
ENCODING 461
SWIDTH 773 0
DWIDTH 11 0
BBX 10 12 0 0
BITMAP
1F00
0000
0C00
1600
1600
1600
2300
2300
3F00
4180
4180
C1C0
ENDCHAR
STARTCHAR uni01CE
ENCODING 462
SWIDTH 623 0
DWIDTH 9 0
BBX 8 9 0 0
BITMAP
7C
00
7C
46
7E
E6
C6
CF
77
ENDCHAR
STARTCHAR uni01CF
ENCODING 463
SWIDTH 361 0
DWIDTH 5 0
BBX 5 12 1 0
BITMAP
F8
00
60
60
60
60
60
60
60
60
60
60
ENDCHAR
STARTCHAR uni01D0
ENCODING 464
SWIDTH 361 0
DWIDTH 5 0
BBX 5 9 1 0
BITMAP
F8
00
60
60
60
60
60
60
60
ENDCHAR
STARTCHAR uni01D1
ENCODING 465
SWIDTH 855 0
DWIDTH 12 0
BBX 11 12 0 0
BITMAP
1F00
0000
1F00
71C0
60C0
C060
C060
C060
C060
60C0
71C0
1F00
ENDCHAR
STARTCHAR uni01D2
ENCODING 466
SWIDTH 675 0
DWIDTH 9 0
BBX 8 9 1 0
BITMAP
3E
00
3C
66
C3
C3
C3
66
3C
ENDCHAR
STARTCHAR uni01D3
ENCODING 467
SWIDTH 783 0
DWIDTH 11 0
BBX 9 12 1 0
BITMAP
3E00
0000
C180
C180
C180
C180
C180
C180
C180
C180
6300
3E00
ENDCHAR
STARTCHAR uni01D4
ENCODING 468
SWIDTH 693 0
DWIDTH 10 0
BBX 7 9 1 0
BITMAP
7C
00
C6
C6
C6
C6
C6
CE
76
ENDCHAR
STARTCHAR uni01D5
ENCODING 469
SWIDTH 783 0
DWIDTH 11 0
BBX 9 14 1 0
BITMAP
3E00
0000
3600
0000
C180
C180
C180
C180
C180
C180
C180
C180
6300
3E00
ENDCHAR
STARTCHAR uni01D6
ENCODING 470
SWIDTH 693 0
DWIDTH 10 0
BBX 7 11 1 0
BITMAP
7C
00
6C
00
C6
C6
C6
C6
C6
CE
76
ENDCHAR
STARTCHAR uni01D7
ENCODING 471
SWIDTH 783 0
DWIDTH 11 0
BBX 9 14 1 0
BITMAP
1E00
0000
3600
0000
C180
C180
C180
C180
C180
C180
C180
C180
6300
3E00
ENDCHAR
STARTCHAR uni01D8
ENCODING 472
SWIDTH 693 0
DWIDTH 10 0
BBX 7 11 1 0
BITMAP
3C
00
6C
00
C6
C6
C6
C6
C6
CE
76
ENDCHAR
STARTCHAR uni01D9
ENCODING 473
SWIDTH 783 0
DWIDTH 11 0
BBX 9 14 1 0
BITMAP
3E00
0000
3600
0000
C180
C180
C180
C180
C180
C180
C180
C180
6300
3E00
ENDCHAR
STARTCHAR uni01DA
ENCODING 474
SWIDTH 693 0
DWIDTH 10 0
BBX 7 11 1 0
BITMAP
7C
00
6C
00
C6
C6
C6
C6
C6
CE
76
ENDCHAR
STARTCHAR uni01DB
ENCODING 475
SWIDTH 783 0
DWIDTH 11 0
BBX 9 14 1 0
BITMAP
1E00
0000
3600
0000
C180
C180
C180
C180
C180
C180
C180
C180
6300
3E00
ENDCHAR
STARTCHAR uni01DC
ENCODING 476
SWIDTH 693 0
DWIDTH 10 0
BBX 7 11 1 0
BITMAP
3C
00
6C
00
C6
C6
C6
C6
C6
CE
76
ENDCHAR
STARTCHAR uni01DD
ENCODING 477
SWIDTH 614 0
DWIDTH 9 0
BBX 8 7 0 0
BITMAP
FC
0E
07
FF
C3
C6
7C
ENDCHAR
STARTCHAR uni01DE
ENCODING 478
SWIDTH 773 0
DWIDTH 11 0
BBX 10 14 0 0
BITMAP
1F00
0000
1B00
0000
0C00
1600
1600
1600
2300
2300
3F00
4180
4180
C1C0
ENDCHAR
STARTCHAR uni01DF
ENCODING 479
SWIDTH 623 0
DWIDTH 9 0
BBX 8 11 0 0
BITMAP
7C
00
36
00
7C
46
7E
E6
C6
CF
77
ENDCHAR
STARTCHAR uni01E0
ENCODING 480
SWIDTH 773 0
DWIDTH 11 0
BBX 10 14 0 0
BITMAP
1F00
0000
0C00
0000
0C00
1600
1600
1600
2300
2300
3F00
4180
4180
C1C0
ENDCHAR
STARTCHAR uni01E1
ENCODING 481
SWIDTH 623 0
DWIDTH 9 0
BBX 8 11 0 0
BITMAP
7C
00
18
00
7C
46
7E
E6
C6
CF
77
ENDCHAR
STARTCHAR uni01E2
ENCODING 482
SWIDTH 997 0
DWIDTH 14 0
BBX 12 12 -1 0
BITMAP
0F80
0000
07F0
0F00
0B00
1B00
13E0
2300
7F00
4300
C300
83F0
ENDCHAR
STARTCHAR uni01E3
ENCODING 483
SWIDTH 913 0
DWIDTH 13 0
BBX 12 9 0 0
BITMAP
0F80
0000
7FE0
4E30
0630
7FF0
C600
CF00
7BF0
ENDCHAR
STARTCHAR uni01E4
ENCODING 484
SWIDTH 759 0
DWIDTH 11 0
BBX 10 10 1 0
BITMAP
1F80
7080
6000
C000
C000
C000
C180
67C0
7180
1F80
ENDCHAR
STARTCHAR uni01E5
ENCODING 485
SWIDTH 696 0
DWIDTH 10 0
BBX 8 10 1 -3
BITMAP
7F
63
C3
C3
C3
E7
7B
FF
47
7C
ENDCHAR
STARTCHAR Gcaron
ENCODING 486
SWIDTH 759 0
DWIDTH 11 0
BBX 9 12 1 0
BITMAP
3E00
0000
1F80
7080
6000
C000
C000
C000
C180
6180
7180
1F80
ENDCHAR
STARTCHAR gcaron
ENCODING 487
SWIDTH 696 0
DWIDTH 10 0
BBX 8 12 1 -3
BITMAP
3E
00
7F
63
C3
C3
C3
E7
7B
03
47
7C
ENDCHAR
STARTCHAR uni01E8
ENCODING 488
SWIDTH 753 0
DWIDTH 11 0
BBX 9 12 1 0
BITMAP
7C00
0000
C300
C600
CC00
D800
D000
F800
DC00
CE00
C600
C380
ENDCHAR
STARTCHAR uni01E9
ENCODING 489
SWIDTH 681 0
DWIDTH 10 0
BBX 8 12 1 0
BITMAP
F8
00
60
60
60
66
64
68
78
6C
6E
67
ENDCHAR
STARTCHAR uni01EA
ENCODING 490
SWIDTH 855 0
DWIDTH 12 0
BBX 11 13 0 -3
BITMAP
1F00
71C0
60C0
C060
C060
C060
C060
60C0
71C0
1F00
0000
0000
0E00
ENDCHAR
STARTCHAR uni01EB
ENCODING 491
SWIDTH 675 0
DWIDTH 9 0
BBX 8 10 1 -3
BITMAP
3C
66
C3
C3
C3
66
3C
00
00
1C
ENDCHAR
STARTCHAR uni01EC
ENCODING 492
SWIDTH 855 0
DWIDTH 12 0
BBX 11 15 0 -3
BITMAP
1F00
0000
1F00
71C0
60C0
C060
C060
C060
C060
60C0
71C0
1F00
0000
0000
0E00
ENDCHAR
STARTCHAR uni01ED
ENCODING 493
SWIDTH 675 0
DWIDTH 9 0
BBX 8 12 1 -3
BITMAP
3E
00
3C
66
C3
C3
C3
66
3C
00
00
1C
ENDCHAR
STARTCHAR uni01F0
ENCODING 496
SWIDTH 361 0
DWIDTH 5 0
BBX 6 12 0 -3
BITMAP
7C
00
18
18
18
18
18
18
18
18
98
F0
ENDCHAR
STARTCHAR uni01F4
ENCODING 500
SWIDTH 759 0
DWIDTH 11 0
BBX 9 12 1 0
BITMAP
1E00
0000
1F80
7080
6000
C000
C000
C000
C180
6180
7180
1F80
ENDCHAR
STARTCHAR uni01F5
ENCODING 501
SWIDTH 696 0
DWIDTH 10 0
BBX 8 12 1 -3
BITMAP
3C
00
7F
63
C3
C3
C3
E7
7B
03
47
7C
ENDCHAR
STARTCHAR uni01F8
ENCODING 504
SWIDTH 783 0
DWIDTH 11 0
BBX 9 12 1 0
BITMAP
3C00
0000
C080
E080
F080
B080
9880
8C80
8680
8780
8380
8180
ENDCHAR
STARTCHAR uni01F9
ENCODING 505
SWIDTH 693 0
DWIDTH 10 0
BBX 7 9 1 0
BITMAP
78
00
DC
E6
C6
C6
C6
C6
C6
ENDCHAR
STARTCHAR Aringacute
ENCODING 506
SWIDTH 773 0
DWIDTH 11 0
BBX 10 14 0 0
BITMAP
1E00
0000
0C00
0000
0C00
1600
1600
1600
2300
2300
3F00
4180
4180
C1C0
ENDCHAR
STARTCHAR aringacute
ENCODING 507
SWIDTH 623 0
DWIDTH 9 0
BBX 8 11 0 0
BITMAP
3C
00
18
00
7C
46
7E
E6
C6
CF
77
ENDCHAR
STARTCHAR AEacute
ENCODING 508
SWIDTH 997 0
DWIDTH 14 0
BBX 12 12 -1 0
BITMAP
0780
0000
07F0
0F00
0B00
1B00
13E0
2300
7F00
4300
C300
83F0
ENDCHAR
STARTCHAR aeacute
ENCODING 509
SWIDTH 913 0
DWIDTH 13 0
BBX 12 9 0 0
BITMAP
0F00
0000
7FE0
4E30
0630
7FF0
C600
CF00
7BF0
ENDCHAR
STARTCHAR Oslashacute
ENCODING 510
SWIDTH 855 0
DWIDTH 12 0
BBX 11 12 0 0
BITMAP
0F00
0000
1F60
71C0
61C0
C260
C660
CC60
D860
70C0
71C0
DF00
ENDCHAR
STARTCHAR oslashacute
ENCODING 511
SWIDTH 675 0
DWIDTH 9 0
BBX 9 9 1 0
BITMAP
1E00
0000
3D80
6600
C700
CB00
D300
6600
FC00
ENDCHAR
STARTCHAR uni0200
ENCODING 512
SWIDTH 773 0
DWIDTH 11 0
BBX 10 12 0 0
BITMAP
1F00
0000
0C00
1600
1600
1600
2300
2300
3F00
4180
4180
C1C0
ENDCHAR
STARTCHAR uni0201
ENCODING 513
SWIDTH 623 0
DWIDTH 9 0
BBX 8 9 0 0
BITMAP
7C
00
7C
46
7E
E6
C6
CF
77
ENDCHAR
STARTCHAR uni0202
ENCODING 514
SWIDTH 773 0
DWIDTH 11 0
BBX 10 12 0 0
BITMAP
1F00
0000
0C00
1600
1600
1600
2300
2300
3F00
4180
4180
C1C0
ENDCHAR
STARTCHAR uni0203
ENCODING 515
SWIDTH 623 0
DWIDTH 9 0
BBX 8 9 0 0
BITMAP
7C
00
7C
46
7E
E6
C6
CF
77
ENDCHAR
STARTCHAR uni0204
ENCODING 516
SWIDTH 645 0
DWIDTH 9 0
BBX 7 12 1 0
BITMAP
F8
00
FE
C0
C0
C0
FC
C0
C0
C0
C0
FE
ENDCHAR
STARTCHAR uni0205
ENCODING 517
SWIDTH 614 0
DWIDTH 9 0
BBX 8 9 0 0
BITMAP
3E
00
3E
63
C3
FF
E0
70
3F
ENDCHAR
STARTCHAR uni0206
ENCODING 518
SWIDTH 645 0
DWIDTH 9 0
BBX 7 12 1 0
BITMAP
F8
00
FE
C0
C0
C0
FC
C0
C0
C0
C0
FE
ENDCHAR
STARTCHAR uni0207
ENCODING 519
SWIDTH 614 0
DWIDTH 9 0
BBX 8 9 0 0
BITMAP
3E
00
3E
63
C3
FF
E0
70
3F
ENDCHAR
STARTCHAR uni0208
ENCODING 520
SWIDTH 361 0
DWIDTH 5 0
BBX 5 12 1 0
BITMAP
F8
00
60
60
60
60
60
60
60
60
60
60
ENDCHAR
STARTCHAR uni0209
ENCODING 521
SWIDTH 361 0
DWIDTH 5 0
BBX 5 9 1 0
BITMAP
F8
00
60
60
60
60
60
60
60
ENDCHAR
STARTCHAR uni020A
ENCODING 522
SWIDTH 361 0
DWIDTH 5 0
BBX 5 12 1 0
BITMAP
F8
00
60
60
60
60
60
60
60
60
60
60
ENDCHAR
STARTCHAR uni020B
ENCODING 523
SWIDTH 361 0
DWIDTH 5 0
BBX 5 9 1 0
BITMAP
F8
00
60
60
60
60
60
60
60
ENDCHAR
STARTCHAR uni020C
ENCODING 524
SWIDTH 855 0
DWIDTH 12 0
BBX 11 12 0 0
BITMAP
1F00
0000
1F00
71C0
60C0
C060
C060
C060
C060
60C0
71C0
1F00
ENDCHAR
STARTCHAR uni020D
ENCODING 525
SWIDTH 675 0
DWIDTH 9 0
BBX 8 9 1 0
BITMAP
3E
00
3C
66
C3
C3
C3
66
3C
ENDCHAR
STARTCHAR uni020E
ENCODING 526
SWIDTH 855 0
DWIDTH 12 0
BBX 11 12 0 0
BITMAP
1F00
0000
1F00
71C0
60C0
C060
C060
C060
C060
60C0
71C0
1F00
ENDCHAR
STARTCHAR uni020F
ENCODING 527
SWIDTH 675 0
DWIDTH 9 0
BBX 8 9 1 0
BITMAP
3E
00
3C
66
C3
C3
C3
66
3C
ENDCHAR
STARTCHAR uni0210
ENCODING 528
SWIDTH 734 0
DWIDTH 10 0
BBX 9 12 1 0
BITMAP
3E00
0000
FE00
C300
C300
C300
C600
F800
CC00
CE00
C600
C780
ENDCHAR
STARTCHAR uni0211
ENCODING 529
SWIDTH 500 0
DWIDTH 7 0
BBX 5 9 1 0
BITMAP
F8
00
D8
F8
C0
C0
C0
C0
C0
ENDCHAR
STARTCHAR uni0212
ENCODING 530
SWIDTH 734 0
DWIDTH 10 0
BBX 9 12 1 0
BITMAP
3E00
0000
FE00
C300
C300
C300
C600
F800
CC00
CE00
C600
C780
ENDCHAR
STARTCHAR uni0213
ENCODING 531
SWIDTH 500 0
DWIDTH 7 0
BBX 5 9 1 0
BITMAP
F8
00
D8
F8
C0
C0
C0
C0
C0
ENDCHAR
STARTCHAR uni0214
ENCODING 532
SWIDTH 783 0
DWIDTH 11 0
BBX 9 12 1 0
BITMAP
3E00
0000
C180
C180
C180
C180
C180
C180
C180
C180
6300
3E00
ENDCHAR
STARTCHAR uni0215
ENCODING 533
SWIDTH 693 0
DWIDTH 10 0
BBX 7 9 1 0
BITMAP
7C
00
C6
C6
C6
C6
C6
CE
76
ENDCHAR
STARTCHAR uni0216
ENCODING 534
SWIDTH 783 0
DWIDTH 11 0
BBX 9 12 1 0
BITMAP
3E00
0000
C180
C180
C180
C180
C180
C180
C180
C180
6300
3E00
ENDCHAR
STARTCHAR uni0217
ENCODING 535
SWIDTH 693 0
DWIDTH 10 0
BBX 7 9 1 0
BITMAP
7C
00
C6
C6
C6
C6
C6
CE
76
ENDCHAR
STARTCHAR Scommaaccent
ENCODING 536
SWIDTH 594 0
DWIDTH 8 0
BBX 7 16 1 -6
BITMAP
7C
E4
E0
E0
78
1C
06
06
86
F8
00
38
38
18
18
30
ENDCHAR
STARTCHAR scommaaccent
ENCODING 537
SWIDTH 622 0
DWIDTH 9 0
BBX 7 13 1 -6
BITMAP
7C
E0
F8
FE
3E
8E
FC
00
38
38
18
18
30
ENDCHAR
STARTCHAR Tcommaaccent
ENCODING 538
SWIDTH 735 0
DWIDTH 10 0
BBX 10 16 0 -6
BITMAP
FFC0
0C00
0C00
0C00
0C00
0C00
0C00
0C00
0C00
0C00
0000
0E00
0E00
0600
0600
0C00
ENDCHAR
STARTCHAR tcommaaccent
ENCODING 539
SWIDTH 436 0
DWIDTH 6 0
BBX 5 15 1 -6
BITMAP
60
60
F8
60
60
60
60
68
38
00
70
70
30
30
60
ENDCHAR
STARTCHAR uni021E
ENCODING 542
SWIDTH 813 0
DWIDTH 11 0
BBX 9 12 1 0
BITMAP
3E00
0000
C180
C180
C180
C180
FF80
C180
C180
C180
C180
C180
ENDCHAR
STARTCHAR uni021F
ENCODING 543
SWIDTH 693 0
DWIDTH 10 0
BBX 8 12 0 0
BITMAP
F8
00
60
60
60
6E
73
63
63
63
63
63
ENDCHAR
STARTCHAR uni0226
ENCODING 550
SWIDTH 773 0
DWIDTH 11 0
BBX 10 12 0 0
BITMAP
0C00
0000
0C00
1600
1600
1600
2300
2300
3F00
4180
4180
C1C0
ENDCHAR
STARTCHAR uni0227
ENCODING 551
SWIDTH 623 0
DWIDTH 9 0
BBX 8 9 0 0
BITMAP
18
00
7C
46
7E
E6
C6
CF
77
ENDCHAR
STARTCHAR uni0228
ENCODING 552
SWIDTH 645 0
DWIDTH 9 0
BBX 7 13 1 -3
BITMAP
FE
C0
C0
C0
FC
C0
C0
C0
C0
FE
30
10
38
ENDCHAR
STARTCHAR uni0229
ENCODING 553
SWIDTH 614 0
DWIDTH 9 0
BBX 8 10 0 -3
BITMAP
3E
63
C3
FF
E0
70
3F
18
08
1C
ENDCHAR
STARTCHAR uni022A
ENCODING 554
SWIDTH 855 0
DWIDTH 12 0
BBX 11 14 0 0
BITMAP
1F00
0000
1B00
0000
1F00
71C0
60C0
C060
C060
C060
C060
60C0
71C0
1F00
ENDCHAR
STARTCHAR uni022B
ENCODING 555
SWIDTH 675 0
DWIDTH 9 0
BBX 8 11 1 0
BITMAP
3E
00
36
00
3C
66
C3
C3
C3
66
3C
ENDCHAR
STARTCHAR uni022C
ENCODING 556
SWIDTH 855 0
DWIDTH 12 0
BBX 11 14 0 0
BITMAP
1F00
0000
1F00
0000
1F00
71C0
60C0
C060
C060
C060
C060
60C0
71C0
1F00
ENDCHAR
STARTCHAR uni022D
ENCODING 557
SWIDTH 675 0
DWIDTH 9 0
BBX 8 11 1 0
BITMAP
3E
00
3E
00
3C
66
C3
C3
C3
66
3C
ENDCHAR
STARTCHAR uni022E
ENCODING 558
SWIDTH 855 0
DWIDTH 12 0
BBX 11 12 0 0
BITMAP
0600
0000
1F00
71C0
60C0
C060
C060
C060
C060
60C0
71C0
1F00
ENDCHAR
STARTCHAR uni022F
ENCODING 559
SWIDTH 675 0
DWIDTH 9 0
BBX 8 9 1 0
BITMAP
18
00
3C
66
C3
C3
C3
66
3C
ENDCHAR
STARTCHAR uni0230
ENCODING 560
SWIDTH 855 0
DWIDTH 12 0
BBX 11 14 0 0
BITMAP
1F00
0000
0600
0000
1F00
71C0
60C0
C060
C060
C060
C060
60C0
71C0
1F00
ENDCHAR
STARTCHAR uni0231
ENCODING 561
SWIDTH 675 0
DWIDTH 9 0
BBX 8 11 1 0
BITMAP
3E
00
18
00
3C
66
C3
C3
C3
66
3C
ENDCHAR
STARTCHAR uni0232
ENCODING 562
SWIDTH 738 0
DWIDTH 10 0
BBX 8 12 1 0
BITMAP
7C
00
E3
62
74
34
38
18
18
18
18
18
ENDCHAR
STARTCHAR uni0233
ENCODING 563
SWIDTH 645 0
DWIDTH 9 0
BBX 9 12 0 -3
BITMAP
3E00
0000
E180
6100
7200
3200
3400
1C00
1800
1800
3000
7000
ENDCHAR
STARTCHAR uni0250
ENCODING 592
SWIDTH 623 0
DWIDTH 9 0
BBX 8 7 0 0
BITMAP
EE
F3
63
67
7E
62
3E
ENDCHAR
STARTCHAR uni0254
ENCODING 596
SWIDTH 545 0
DWIDTH 8 0
BBX 6 7 1 0
BITMAP
F0
18
0C
0C
0C
18
F0
ENDCHAR
STARTCHAR uni0258
ENCODING 600
SWIDTH 614 0
DWIDTH 9 0
BBX 8 7 0 0
BITMAP
7C
C6
C3
FF
07
0E
FC
ENDCHAR
STARTCHAR uni0259
ENCODING 601
SWIDTH 614 0
DWIDTH 9 0
BBX 8 7 0 0
BITMAP
FC
0E
07
FF
C3
C6
7C
ENDCHAR
STARTCHAR uni025F
ENCODING 607
SWIDTH 461 0
DWIDTH 6 0
BBX 6 10 0 -3
BITMAP
18
18
18
18
18
18
7C
18
98
F0
ENDCHAR
STARTCHAR uni0265
ENCODING 613
SWIDTH 693 0
DWIDTH 10 0
BBX 7 10 1 -3
BITMAP
C6
C6
C6
C6
C6
CE
76
06
06
06
ENDCHAR
STARTCHAR uni0275
ENCODING 629
SWIDTH 675 0
DWIDTH 9 0
BBX 8 7 1 0
BITMAP
3C
66
C3
FF
C3
66
3C
ENDCHAR
STARTCHAR uni0279
ENCODING 633
SWIDTH 500 0
DWIDTH 7 0
BBX 5 7 1 0
BITMAP
18
18
18
18
18
F8
D8
ENDCHAR
STARTCHAR uni0287
ENCODING 647
SWIDTH 436 0
DWIDTH 6 0
BBX 5 9 1 0
BITMAP
E0
B0
30
30
30
30
F8
30
30
ENDCHAR
STARTCHAR uni0288
ENCODING 648
SWIDTH 436 0
DWIDTH 6 0
BBX 6 12 1 -3
BITMAP
60
60
F8
60
60
60
60
60
60
60
64
3C
ENDCHAR
STARTCHAR uni0289
ENCODING 649
SWIDTH 693 0
DWIDTH 10 0
BBX 7 7 1 0
BITMAP
C6
C6
C6
FE
C6
CE
76
ENDCHAR
STARTCHAR uni028C
ENCODING 652
SWIDTH 663 0
DWIDTH 9 0
BBX 9 7 0 0
BITMAP
1C00
1C00
2E00
2600
6600
4300
C380
ENDCHAR
STARTCHAR uni028D
ENCODING 653
SWIDTH 885 0
DWIDTH 12 0
BBX 12 7 0 0
BITMAP
38C0
39C0
39E0
6D60
4E60
4E60
CE30
ENDCHAR
STARTCHAR uni028E
ENCODING 654
SWIDTH 645 0
DWIDTH 9 0
BBX 9 10 0 0
BITMAP
0700
0600
0C00
0C00
1C00
1600
2600
2700
4300
C380
ENDCHAR
STARTCHAR uni029E
ENCODING 670
SWIDTH 681 0
DWIDTH 10 0
BBX 7 10 2 -3
BITMAP
E6
76
36
1E
16
26
66
06
06
06
ENDCHAR
STARTCHAR uni02BB
ENCODING 699
SWIDTH 265 0
DWIDTH 4 0
BBX 3 4 0 6
BITMAP
60
C0
E0
E0
ENDCHAR
STARTCHAR afii57929
ENCODING 700
SWIDTH 265 0
DWIDTH 4 0
BBX 3 4 0 6
BITMAP
E0
E0
60
C0
ENDCHAR
STARTCHAR afii64937
ENCODING 701
SWIDTH 265 0
DWIDTH 4 0
BBX 3 4 0 6
BITMAP
E0
E0
C0
60
ENDCHAR
STARTCHAR circumflex
ENCODING 710
SWIDTH 675 0
DWIDTH 9 0
BBX 5 1 2 9
BITMAP
F8
ENDCHAR
STARTCHAR caron
ENCODING 711
SWIDTH 675 0
DWIDTH 9 0
BBX 5 1 2 9
BITMAP
F8
ENDCHAR
STARTCHAR uni02C8
ENCODING 712
SWIDTH 265 0
DWIDTH 4 0
BBX 3 4 0 6
BITMAP
E0
E0
40
40
ENDCHAR
STARTCHAR macron
ENCODING 713
SWIDTH 675 0
DWIDTH 9 0
BBX 5 1 2 9
BITMAP
F8
ENDCHAR
STARTCHAR uni02CA
ENCODING 714
SWIDTH 675 0
DWIDTH 9 0
BBX 4 1 3 9
BITMAP
F0
ENDCHAR
STARTCHAR uni02CB
ENCODING 715
SWIDTH 675 0
DWIDTH 9 0
BBX 4 1 2 9
BITMAP
F0
ENDCHAR
STARTCHAR uni02CD
ENCODING 717
SWIDTH 675 0
DWIDTH 9 0
BBX 5 1 2 -2
BITMAP
F8
ENDCHAR
STARTCHAR uni02CE
ENCODING 718
SWIDTH 675 0
DWIDTH 9 0
BBX 4 1 2 -2
BITMAP
F0
ENDCHAR
STARTCHAR uni02CF
ENCODING 719
SWIDTH 675 0
DWIDTH 9 0
BBX 4 1 3 -2
BITMAP
F0
ENDCHAR
STARTCHAR breve
ENCODING 728
SWIDTH 675 0
DWIDTH 9 0
BBX 5 1 2 9
BITMAP
F8
ENDCHAR
STARTCHAR dotaccent
ENCODING 729
SWIDTH 675 0
DWIDTH 9 0
BBX 2 1 4 9
BITMAP
C0
ENDCHAR
STARTCHAR ring
ENCODING 730
SWIDTH 675 0
DWIDTH 9 0
BBX 2 1 3 9
BITMAP
C0
ENDCHAR
STARTCHAR ogonek
ENCODING 731
SWIDTH 675 0
DWIDTH 9 0
BBX 3 1 3 -3
BITMAP
E0
ENDCHAR
STARTCHAR tilde
ENCODING 732
SWIDTH 675 0
DWIDTH 9 0
BBX 5 1 2 9
BITMAP
F8
ENDCHAR
STARTCHAR hungarumlaut
ENCODING 733
SWIDTH 675 0
DWIDTH 9 0
BBX 5 1 3 9
BITMAP
F8
ENDCHAR
STARTCHAR uni02EE
ENCODING 750
SWIDTH 530 0
DWIDTH 7 0
BBX 6 4 1 6
BITMAP
CC
CC
4C
88
ENDCHAR
STARTCHAR uni037E
ENCODING 894
SWIDTH 343 0
DWIDTH 5 0
BBX 2 10 1 -3
BITMAP
C0
C0
00
00
00
C0
C0
40
40
80
ENDCHAR
STARTCHAR tonos
ENCODING 900
SWIDTH 675 0
DWIDTH 9 0
BBX 4 1 3 9
BITMAP
F0
ENDCHAR
STARTCHAR dieresistonos
ENCODING 901
SWIDTH 675 0
DWIDTH 9 0
BBX 5 3 2 9
BITMAP
78
00
D8
ENDCHAR
STARTCHAR anoteleia
ENCODING 903
SWIDTH 343 0
DWIDTH 10 0
BBX 2 1 4 4
BITMAP
C0
ENDCHAR
STARTCHAR mu
ENCODING 956
SWIDTH 699 0
DWIDTH 10 0
BBX 7 10 1 -3
BITMAP
C6
C6
C6
C6
C6
CE
F6
C0
C0
C0
ENDCHAR
STARTCHAR uni1E00
ENCODING 7680
SWIDTH 773 0
DWIDTH 11 0
BBX 10 12 0 -2
BITMAP
0C00
1600
1600
1600
2300
2300
3F00
4180
4180
C1C0
0000
0C00
ENDCHAR
STARTCHAR uni1E01
ENCODING 7681
SWIDTH 623 0
DWIDTH 9 0
BBX 8 9 0 -2
BITMAP
7C
46
7E
E6
C6
CF
77
00
18
ENDCHAR
STARTCHAR uni1E02
ENCODING 7682
SWIDTH 669 0
DWIDTH 9 0
BBX 7 12 1 0
BITMAP
30
00
FC
C6
C6
CE
F8
CC
C6
C6
C6
FC
ENDCHAR
STARTCHAR uni1E03
ENCODING 7683
SWIDTH 696 0
DWIDTH 10 0
BBX 8 12 1 0
BITMAP
60
00
C0
C0
C0
DE
E7
C3
C3
C3
C7
FE
ENDCHAR
STARTCHAR uni1E04
ENCODING 7684
SWIDTH 669 0
DWIDTH 9 0
BBX 7 12 1 -2
BITMAP
FC
C6
C6
CE
F8
CC
C6
C6
C6
FC
00
30
ENDCHAR
STARTCHAR uni1E05
ENCODING 7685
SWIDTH 696 0
DWIDTH 10 0
BBX 8 12 1 -2
BITMAP
C0
C0
C0
DE
E7
C3
C3
C3
C7
FE
00
18
ENDCHAR
STARTCHAR uni1E06
ENCODING 7686
SWIDTH 669 0
DWIDTH 9 0
BBX 7 12 1 -2
BITMAP
FC
C6
C6
CE
F8
CC
C6
C6
C6
FC
00
7C
ENDCHAR
STARTCHAR uni1E07
ENCODING 7687
SWIDTH 696 0
DWIDTH 10 0
BBX 8 12 1 -2
BITMAP
C0
C0
C0
DE
E7
C3
C3
C3
C7
FE
00
7C
ENDCHAR
STARTCHAR uni1E08
ENCODING 7688
SWIDTH 726 0
DWIDTH 10 0
BBX 9 15 1 -3
BITMAP
3C00
0000
1F80
7080
6000
C000
C000
C000
C000
6000
7080
1F80
0800
0800
1C00
ENDCHAR
STARTCHAR uni1E09
ENCODING 7689
SWIDTH 545 0
DWIDTH 8 0
BBX 6 12 1 -3
BITMAP
78
00
3C
60
C0
C0
C0
60
3C
10
10
38
ENDCHAR
STARTCHAR uni1E0A
ENCODING 7690
SWIDTH 819 0
DWIDTH 11 0
BBX 10 12 1 0
BITMAP
1800
0000
FE00
C380
C180
C0C0
C0C0
C0C0
C0C0
C080
C180
FE00
ENDCHAR
STARTCHAR uni1E0B
ENCODING 7691
SWIDTH 696 0
DWIDTH 10 0
BBX 8 12 1 0
BITMAP
06
00
03
03
03
3F
63
C3
C3
C3
E7
7B
ENDCHAR
STARTCHAR uni1E0C
ENCODING 7692
SWIDTH 819 0
DWIDTH 11 0
BBX 10 12 1 -2
BITMAP
FE00
C380
C180
C0C0
C0C0
C0C0
C0C0
C080
C180
FE00
0000
1800
ENDCHAR
STARTCHAR uni1E0D
ENCODING 7693
SWIDTH 696 0
DWIDTH 10 0
BBX 8 12 1 -2
BITMAP
03
03
03
3F
63
C3
C3
C3
E7
7B
00
18
ENDCHAR
STARTCHAR uni1E0E
ENCODING 7694
SWIDTH 819 0
DWIDTH 11 0
BBX 10 12 1 -2
BITMAP
FE00
C380
C180
C0C0
C0C0
C0C0
C0C0
C080
C180
FE00
0000
3E00
ENDCHAR
STARTCHAR uni1E0F
ENCODING 7695
SWIDTH 696 0
DWIDTH 10 0
BBX 8 12 1 -2
BITMAP
03
03
03
3F
63
C3
C3
C3
E7
7B
00
3E
ENDCHAR
STARTCHAR uni1E10
ENCODING 7696
SWIDTH 819 0
DWIDTH 11 0
BBX 10 13 1 -3
BITMAP
FE00
C380
C180
C0C0
C0C0
C0C0
C0C0
C080
C180
FE00
1800
0800
1C00
ENDCHAR
STARTCHAR uni1E11
ENCODING 7697
SWIDTH 696 0
DWIDTH 10 0
BBX 8 13 1 -3
BITMAP
03
03
03
3F
63
C3
C3
C3
E7
7B
18
08
1C
ENDCHAR
STARTCHAR uni1E12
ENCODING 7698
SWIDTH 819 0
DWIDTH 11 0
BBX 10 12 1 -2
BITMAP
FE00
C380
C180
C0C0
C0C0
C0C0
C0C0
C080
C180
FE00
0000
3E00
ENDCHAR
STARTCHAR uni1E13
ENCODING 7699
SWIDTH 696 0
DWIDTH 10 0
BBX 8 12 1 -2
BITMAP
03
03
03
3F
63
C3
C3
C3
E7
7B
00
3E
ENDCHAR
STARTCHAR uni1E14
ENCODING 7700
SWIDTH 645 0
DWIDTH 9 0
BBX 7 14 1 0
BITMAP
78
00
F8
00
FE
C0
C0
C0
FC
C0
C0
C0
C0
FE
ENDCHAR
STARTCHAR uni1E15
ENCODING 7701
SWIDTH 614 0
DWIDTH 9 0
BBX 8 11 0 0
BITMAP
3C
00
3E
00
3E
63
C3
FF
E0
70
3F
ENDCHAR
STARTCHAR uni1E16
ENCODING 7702
SWIDTH 645 0
DWIDTH 9 0
BBX 7 14 1 0
BITMAP
78
00
F8
00
FE
C0
C0
C0
FC
C0
C0
C0
C0
FE
ENDCHAR
STARTCHAR uni1E17
ENCODING 7703
SWIDTH 614 0
DWIDTH 9 0
BBX 8 11 0 0
BITMAP
3C
00
3E
00
3E
63
C3
FF
E0
70
3F
ENDCHAR
STARTCHAR uni1E18
ENCODING 7704
SWIDTH 645 0
DWIDTH 9 0
BBX 7 12 1 -2
BITMAP
FE
C0
C0
C0
FC
C0
C0
C0
C0
FE
00
F8
ENDCHAR
STARTCHAR uni1E19
ENCODING 7705
SWIDTH 614 0
DWIDTH 9 0
BBX 8 9 0 -2
BITMAP
3E
63
C3
FF
E0
70
3F
00
3E
ENDCHAR
STARTCHAR uni1E1A
ENCODING 7706
SWIDTH 645 0
DWIDTH 9 0
BBX 7 12 1 -2
BITMAP
FE
C0
C0
C0
FC
C0
C0
C0
C0
FE
00
F8
ENDCHAR
STARTCHAR uni1E1B
ENCODING 7707
SWIDTH 614 0
DWIDTH 9 0
BBX 8 9 0 -2
BITMAP
3E
63
C3
FF
E0
70
3F
00
3E
ENDCHAR
STARTCHAR uni1E1C
ENCODING 7708
SWIDTH 645 0
DWIDTH 9 0
BBX 7 15 1 -3
BITMAP
F8
00
FE
C0
C0
C0
FC
C0
C0
C0
C0
FE
30
10
38
ENDCHAR
STARTCHAR uni1E1D
ENCODING 7709
SWIDTH 614 0
DWIDTH 9 0
BBX 8 12 0 -3
BITMAP
3E
00
3E
63
C3
FF
E0
70
3F
18
08
1C
ENDCHAR
STARTCHAR uni1E1E
ENCODING 7710
SWIDTH 602 0
DWIDTH 8 0
BBX 6 12 2 0
BITMAP
60
00
FC
C0
C0
C0
F8
C0
C0
C0
C0
C0
ENDCHAR
STARTCHAR uni1E1F
ENCODING 7711
SWIDTH 461 0
DWIDTH 6 0
BBX 6 12 0 0
BITMAP
30
00
3C
64
60
F8
60
60
60
60
60
60
ENDCHAR
STARTCHAR uni1E20
ENCODING 7712
SWIDTH 759 0
DWIDTH 11 0
BBX 9 12 1 0
BITMAP
3E00
0000
1F80
7080
6000
C000
C000
C000
C180
6180
7180
1F80
ENDCHAR
STARTCHAR uni1E21
ENCODING 7713
SWIDTH 696 0
DWIDTH 10 0
BBX 8 12 1 -3
BITMAP
3E
00
7F
63
C3
C3
C3
E7
7B
03
47
7C
ENDCHAR
STARTCHAR uni1E22
ENCODING 7714
SWIDTH 813 0
DWIDTH 11 0
BBX 9 12 1 0
BITMAP
0C00
0000
C180
C180
C180
C180
FF80
C180
C180
C180
C180
C180
ENDCHAR
STARTCHAR uni1E23
ENCODING 7715
SWIDTH 693 0
DWIDTH 10 0
BBX 7 12 1 0
BITMAP
60
00
C0
C0
C0
DC
E6
C6
C6
C6
C6
C6
ENDCHAR
STARTCHAR uni1E24
ENCODING 7716
SWIDTH 813 0
DWIDTH 11 0
BBX 9 12 1 -2
BITMAP
C180
C180
C180
C180
FF80
C180
C180
C180
C180
C180
0000
0C00
ENDCHAR
STARTCHAR uni1E25
ENCODING 7717
SWIDTH 693 0
DWIDTH 10 0
BBX 7 12 1 -2
BITMAP
C0
C0
C0
DC
E6
C6
C6
C6
C6
C6
00
18
ENDCHAR
STARTCHAR uni1E26
ENCODING 7718
SWIDTH 813 0
DWIDTH 11 0
BBX 9 12 1 0
BITMAP
3600
0000
C180
C180
C180
C180
FF80
C180
C180
C180
C180
C180
ENDCHAR
STARTCHAR uni1E27
ENCODING 7719
SWIDTH 693 0
DWIDTH 10 0
BBX 8 12 0 0
BITMAP
D8
00
60
60
60
6E
73
63
63
63
63
63
ENDCHAR
STARTCHAR uni1E28
ENCODING 7720
SWIDTH 813 0
DWIDTH 11 0
BBX 9 13 1 -3
BITMAP
C180
C180
C180
C180
FF80
C180
C180
C180
C180
C180
1800
0800
1C00
ENDCHAR
STARTCHAR uni1E29
ENCODING 7721
SWIDTH 693 0
DWIDTH 10 0
BBX 7 13 1 -3
BITMAP
C0
C0
C0
DC
E6
C6
C6
C6
C6
C6
30
10
38
ENDCHAR
STARTCHAR uni1E2A
ENCODING 7722
SWIDTH 813 0
DWIDTH 11 0
BBX 9 12 1 -2
BITMAP
C180
C180
C180
C180
FF80
C180
C180
C180
C180
C180
0000
3E00
ENDCHAR
STARTCHAR uni1E2B
ENCODING 7723
SWIDTH 693 0
DWIDTH 10 0
BBX 7 12 1 -2
BITMAP
C0
C0
C0
DC
E6
C6
C6
C6
C6
C6
00
7C
ENDCHAR
STARTCHAR uni1E2C
ENCODING 7724
SWIDTH 361 0
DWIDTH 5 0
BBX 5 12 1 -2
BITMAP
60
60
60
60
60
60
60
60
60
60
00
F8
ENDCHAR
STARTCHAR uni1E2D
ENCODING 7725
SWIDTH 361 0
DWIDTH 5 0
BBX 5 12 1 -2
BITMAP
60
00
00
60
60
60
60
60
60
60
00
F8
ENDCHAR
STARTCHAR uni1E2E
ENCODING 7726
SWIDTH 361 0
DWIDTH 5 0
BBX 5 14 3 0
BITMAP
F0
00
D8
00
60
60
60
60
60
60
60
60
60
60
ENDCHAR
STARTCHAR uni1E2F
ENCODING 7727
SWIDTH 361 0
DWIDTH 5 0
BBX 5 11 3 0
BITMAP
F0
00
D8
00
60
60
60
60
60
60
60
ENDCHAR
STARTCHAR uni1E30
ENCODING 7728
SWIDTH 753 0
DWIDTH 11 0
BBX 9 12 1 0
BITMAP
3C00
0000
C300
C600
CC00
D800
D000
F800
DC00
CE00
C600
C380
ENDCHAR
STARTCHAR uni1E31
ENCODING 7729
SWIDTH 681 0
DWIDTH 10 0
BBX 7 12 2 0
BITMAP
F0
00
C0
C0
C0
CC
C8
D0
F0
D8
DC
CE
ENDCHAR
STARTCHAR uni1E32
ENCODING 7730
SWIDTH 753 0
DWIDTH 11 0
BBX 9 12 1 -2
BITMAP
C300
C600
CC00
D800
D000
F800
DC00
CE00
C600
C380
0000
1800
ENDCHAR
STARTCHAR uni1E33
ENCODING 7731
SWIDTH 681 0
DWIDTH 10 0
BBX 7 12 2 -2
BITMAP
C0
C0
C0
CC
C8
D0
F0
D8
DC
CE
00
30
ENDCHAR
STARTCHAR uni1E34
ENCODING 7732
SWIDTH 753 0
DWIDTH 11 0
BBX 9 12 1 -2
BITMAP
C300
C600
CC00
D800
D000
F800
DC00
CE00
C600
C380
0000
3E00
ENDCHAR
STARTCHAR uni1E35
ENCODING 7733
SWIDTH 681 0
DWIDTH 10 0
BBX 7 12 2 -2
BITMAP
C0
C0
C0
CC
C8
D0
F0
D8
DC
CE
00
7C
ENDCHAR
STARTCHAR uni1E36
ENCODING 7734
SWIDTH 620 0
DWIDTH 9 0
BBX 7 12 1 -2
BITMAP
C0
C0
C0
C0
C0
C0
C0
C0
C0
FE
00
30
ENDCHAR
STARTCHAR uni1E37
ENCODING 7735
SWIDTH 361 0
DWIDTH 5 0
BBX 2 12 2 -2
BITMAP
C0
C0
C0
C0
C0
C0
C0
C0
C0
C0
00
C0
ENDCHAR
STARTCHAR uni1E38
ENCODING 7736
SWIDTH 620 0
DWIDTH 9 0
BBX 8 14 0 -2
BITMAP
F8
00
60
60
60
60
60
60
60
60
60
7F
00
18
ENDCHAR
STARTCHAR uni1E39
ENCODING 7737
SWIDTH 361 0
DWIDTH 5 0
BBX 5 14 1 -2
BITMAP
F8
00
60
60
60
60
60
60
60
60
60
60
00
60
ENDCHAR
STARTCHAR uni1E3A
ENCODING 7738
SWIDTH 620 0
DWIDTH 9 0
BBX 7 12 1 -2
BITMAP
C0
C0
C0
C0
C0
C0
C0
C0
C0
FE
00
F8
ENDCHAR
STARTCHAR uni1E3B
ENCODING 7739
SWIDTH 361 0
DWIDTH 5 0
BBX 5 12 1 -2
BITMAP
60
60
60
60
60
60
60
60
60
60
00
F8
ENDCHAR
STARTCHAR uni1E3C
ENCODING 7740
SWIDTH 620 0
DWIDTH 9 0
BBX 7 12 1 -2
BITMAP
C0
C0
C0
C0
C0
C0
C0
C0
C0
FE
00
F8
ENDCHAR
STARTCHAR uni1E3D
ENCODING 7741
SWIDTH 361 0
DWIDTH 5 0
BBX 5 12 1 -2
BITMAP
60
60
60
60
60
60
60
60
60
60
00
F8
ENDCHAR
STARTCHAR uni1E3E
ENCODING 7742
SWIDTH 940 0
DWIDTH 13 0
BBX 11 12 1 0
BITMAP
0F00
0000
E0E0
E0E0
B0E0
B160
B160
9A60
9A60
8A60
8C60
8060
ENDCHAR
STARTCHAR uni1E3F
ENCODING 7743
SWIDTH 1006 0
DWIDTH 14 0
BBX 12 9 1 0
BITMAP
0F00
0000
DCF0
E730
C630
C630
C630
C630
C630
ENDCHAR
STARTCHAR uni1E40
ENCODING 7744
SWIDTH 940 0
DWIDTH 13 0
BBX 11 12 1 0
BITMAP
0600
0000
E0E0
E0E0
B0E0
B160
B160
9A60
9A60
8A60
8C60
8060
ENDCHAR
STARTCHAR uni1E41
ENCODING 7745
SWIDTH 1006 0
DWIDTH 14 0
BBX 12 9 1 0
BITMAP
0600
0000
DCF0
E730
C630
C630
C630
C630
C630
ENDCHAR
STARTCHAR uni1E42
ENCODING 7746
SWIDTH 940 0
DWIDTH 13 0
BBX 11 12 1 -2
BITMAP
E0E0
E0E0
B0E0
B160
B160
9A60
9A60
8A60
8C60
8060
0000
0600
ENDCHAR
STARTCHAR uni1E43
ENCODING 7747
SWIDTH 1006 0
DWIDTH 14 0
BBX 12 9 1 -2
BITMAP
DCF0
E730
C630
C630
C630
C630
C630
0000
0600
ENDCHAR
STARTCHAR uni1E44
ENCODING 7748
SWIDTH 783 0
DWIDTH 11 0
BBX 9 12 1 0
BITMAP
1800
0000
C080
E080
F080
B080
9880
8C80
8680
8780
8380
8180
ENDCHAR
STARTCHAR uni1E45
ENCODING 7749
SWIDTH 693 0
DWIDTH 10 0
BBX 7 9 1 0
BITMAP
30
00
DC
E6
C6
C6
C6
C6
C6
ENDCHAR
STARTCHAR uni1E46
ENCODING 7750
SWIDTH 783 0
DWIDTH 11 0
BBX 9 12 1 -2
BITMAP
C080
E080
F080
B080
9880
8C80
8680
8780
8380
8180
0000
0C00
ENDCHAR
STARTCHAR uni1E47
ENCODING 7751
SWIDTH 693 0
DWIDTH 10 0
BBX 7 9 1 -2
BITMAP
DC
E6
C6
C6
C6
C6
C6
00
18
ENDCHAR
STARTCHAR uni1E48
ENCODING 7752
SWIDTH 783 0
DWIDTH 11 0
BBX 9 12 1 -2
BITMAP
C080
E080
F080
B080
9880
8C80
8680
8780
8380
8180
0000
1F00
ENDCHAR
STARTCHAR uni1E49
ENCODING 7753
SWIDTH 693 0
DWIDTH 10 0
BBX 7 9 1 -2
BITMAP
DC
E6
C6
C6
C6
C6
C6
00
7C
ENDCHAR
STARTCHAR uni1E4A
ENCODING 7754
SWIDTH 783 0
DWIDTH 11 0
BBX 9 12 1 -2
BITMAP
C080
E080
F080
B080
9880
8C80
8680
8780
8380
8180
0000
1F00
ENDCHAR
STARTCHAR uni1E4B
ENCODING 7755
SWIDTH 693 0
DWIDTH 10 0
BBX 7 9 1 -2
BITMAP
DC
E6
C6
C6
C6
C6
C6
00
7C
ENDCHAR
STARTCHAR uni1E4C
ENCODING 7756
SWIDTH 855 0
DWIDTH 12 0
BBX 11 14 0 0
BITMAP
0F00
0000
1F00
0000
1F00
71C0
60C0
C060
C060
C060
C060
60C0
71C0
1F00
ENDCHAR
STARTCHAR uni1E4D
ENCODING 7757
SWIDTH 675 0
DWIDTH 9 0
BBX 8 11 1 0
BITMAP
3C
00
3E
00
3C
66
C3
C3
C3
66
3C
ENDCHAR
STARTCHAR uni1E4E
ENCODING 7758
SWIDTH 855 0
DWIDTH 12 0
BBX 11 14 0 0
BITMAP
1B00
0000
1F00
0000
1F00
71C0
60C0
C060
C060
C060
C060
60C0
71C0
1F00
ENDCHAR
STARTCHAR uni1E4F
ENCODING 7759
SWIDTH 675 0
DWIDTH 9 0
BBX 8 11 1 0
BITMAP
36
00
3E
00
3C
66
C3
C3
C3
66
3C
ENDCHAR
STARTCHAR uni1E50
ENCODING 7760
SWIDTH 855 0
DWIDTH 12 0
BBX 11 14 0 0
BITMAP
0F00
0000
1F00
0000
1F00
71C0
60C0
C060
C060
C060
C060
60C0
71C0
1F00
ENDCHAR
STARTCHAR uni1E51
ENCODING 7761
SWIDTH 675 0
DWIDTH 9 0
BBX 8 11 1 0
BITMAP
3C
00
3E
00
3C
66
C3
C3
C3
66
3C
ENDCHAR
STARTCHAR uni1E52
ENCODING 7762
SWIDTH 855 0
DWIDTH 12 0
BBX 11 14 0 0
BITMAP
0F00
0000
1F00
0000
1F00
71C0
60C0
C060
C060
C060
C060
60C0
71C0
1F00
ENDCHAR
STARTCHAR uni1E53
ENCODING 7763
SWIDTH 675 0
DWIDTH 9 0
BBX 8 11 1 0
BITMAP
3C
00
3E
00
3C
66
C3
C3
C3
66
3C
ENDCHAR
STARTCHAR uni1E54
ENCODING 7764
SWIDTH 657 0
DWIDTH 9 0
BBX 7 12 1 0
BITMAP
78
00
FC
CE
C6
C6
CC
F8
C0
C0
C0
C0
ENDCHAR
STARTCHAR uni1E55
ENCODING 7765
SWIDTH 696 0
DWIDTH 10 0
BBX 8 12 1 -3
BITMAP
3C
00
DE
E7
C3
C3
C3
C6
FC
C0
C0
C0
ENDCHAR
STARTCHAR uni1E56
ENCODING 7766
SWIDTH 657 0
DWIDTH 9 0
BBX 7 12 1 0
BITMAP
30
00
FC
CE
C6
C6
CC
F8
C0
C0
C0
C0
ENDCHAR
STARTCHAR uni1E57
ENCODING 7767
SWIDTH 696 0
DWIDTH 10 0
BBX 8 12 1 -3
BITMAP
18
00
DE
E7
C3
C3
C3
C6
FC
C0
C0
C0
ENDCHAR
STARTCHAR uni1E58
ENCODING 7768
SWIDTH 734 0
DWIDTH 10 0
BBX 9 12 1 0
BITMAP
1800
0000
FE00
C300
C300
C300
C600
F800
CC00
CE00
C600
C780
ENDCHAR
STARTCHAR uni1E59
ENCODING 7769
SWIDTH 500 0
DWIDTH 7 0
BBX 5 9 1 0
BITMAP
30
00
D8
F8
C0
C0
C0
C0
C0
ENDCHAR
STARTCHAR uni1E5A
ENCODING 7770
SWIDTH 734 0
DWIDTH 10 0
BBX 9 12 1 -2
BITMAP
FE00
C300
C300
C300
C600
F800
CC00
CE00
C600
C780
0000
1800
ENDCHAR
STARTCHAR uni1E5B
ENCODING 7771
SWIDTH 500 0
DWIDTH 7 0
BBX 5 9 1 -2
BITMAP
D8
F8
C0
C0
C0
C0
C0
00
60
ENDCHAR
STARTCHAR uni1E5C
ENCODING 7772
SWIDTH 734 0
DWIDTH 10 0
BBX 9 14 1 -2
BITMAP
3E00
0000
FE00
C300
C300
C300
C600
F800
CC00
CE00
C600
C780
0000
1800
ENDCHAR
STARTCHAR uni1E5D
ENCODING 7773
SWIDTH 500 0
DWIDTH 7 0
BBX 5 11 1 -2
BITMAP
F8
00
D8
F8
C0
C0
C0
C0
C0
00
60
ENDCHAR
STARTCHAR uni1E5E
ENCODING 7774
SWIDTH 734 0
DWIDTH 10 0
BBX 9 12 1 -2
BITMAP
FE00
C300
C300
C300
C600
F800
CC00
CE00
C600
C780
0000
3E00
ENDCHAR
STARTCHAR uni1E5F
ENCODING 7775
SWIDTH 500 0
DWIDTH 7 0
BBX 6 9 0 -2
BITMAP
6C
7C
60
60
60
60
60
00
F8
ENDCHAR
STARTCHAR uni1E60
ENCODING 7776
SWIDTH 594 0
DWIDTH 8 0
BBX 7 12 1 0
BITMAP
30
00
7C
E4
E0
E0
78
1C
06
06
86
F8
ENDCHAR
STARTCHAR uni1E61
ENCODING 7777
SWIDTH 622 0
DWIDTH 9 0
BBX 7 9 1 0
BITMAP
30
00
7C
E0
F8
FE
3E
8E
FC
ENDCHAR
STARTCHAR uni1E62
ENCODING 7778
SWIDTH 594 0
DWIDTH 8 0
BBX 7 12 1 -2
BITMAP
7C
E4
E0
E0
78
1C
06
06
86
F8
00
18
ENDCHAR
STARTCHAR uni1E63
ENCODING 7779
SWIDTH 622 0
DWIDTH 9 0
BBX 7 9 1 -2
BITMAP
7C
E0
F8
FE
3E
8E
FC
00
18
ENDCHAR
STARTCHAR uni1E64
ENCODING 7780
SWIDTH 594 0
DWIDTH 8 0
BBX 7 14 1 0
BITMAP
30
00
78
00
7C
E4
E0
E0
78
1C
06
06
86
F8
ENDCHAR
STARTCHAR uni1E65
ENCODING 7781
SWIDTH 622 0
DWIDTH 9 0
BBX 7 11 1 0
BITMAP
30
00
78
00
7C
E0
F8
FE
3E
8E
FC
ENDCHAR
STARTCHAR uni1E66
ENCODING 7782
SWIDTH 594 0
DWIDTH 8 0
BBX 7 14 1 0
BITMAP
30
00
7C
00
7C
E4
E0
E0
78
1C
06
06
86
F8
ENDCHAR
STARTCHAR uni1E67
ENCODING 7783
SWIDTH 622 0
DWIDTH 9 0
BBX 7 11 1 0
BITMAP
18
00
7C
00
7C
E0
F8
FE
3E
8E
FC
ENDCHAR
STARTCHAR uni1E68
ENCODING 7784
SWIDTH 594 0
DWIDTH 8 0
BBX 7 14 1 -2
BITMAP
30
00
7C
E4
E0
E0
78
1C
06
06
86
F8
00
18
ENDCHAR
STARTCHAR uni1E69
ENCODING 7785
SWIDTH 622 0
DWIDTH 9 0
BBX 7 11 1 -2
BITMAP
30
00
7C
E0
F8
FE
3E
8E
FC
00
18
ENDCHAR
STARTCHAR uni1E6A
ENCODING 7786
SWIDTH 735 0
DWIDTH 10 0
BBX 10 12 0 0
BITMAP
0C00
0000
FFC0
0C00
0C00
0C00
0C00
0C00
0C00
0C00
0C00
0C00
ENDCHAR
STARTCHAR uni1E6B
ENCODING 7787
SWIDTH 436 0
DWIDTH 6 0
BBX 5 11 1 0
BITMAP
60
00
60
60
F8
60
60
60
60
68
38
ENDCHAR
STARTCHAR uni1E6C
ENCODING 7788
SWIDTH 735 0
DWIDTH 10 0
BBX 10 12 0 -2
BITMAP
FFC0
0C00
0C00
0C00
0C00
0C00
0C00
0C00
0C00
0C00
0000
0C00
ENDCHAR
STARTCHAR uni1E6D
ENCODING 7789
SWIDTH 436 0
DWIDTH 6 0
BBX 5 11 1 -2
BITMAP
60
60
F8
60
60
60
60
68
38
00
30
ENDCHAR
STARTCHAR uni1E6E
ENCODING 7790
SWIDTH 735 0
DWIDTH 10 0
BBX 10 12 0 -2
BITMAP
FFC0
0C00
0C00
0C00
0C00
0C00
0C00
0C00
0C00
0C00
0000
1F00
ENDCHAR
STARTCHAR uni1E6F
ENCODING 7791
SWIDTH 436 0
DWIDTH 6 0
BBX 5 11 1 -2
BITMAP
60
60
F8
60
60
60
60
68
38
00
F8
ENDCHAR
STARTCHAR uni1E70
ENCODING 7792
SWIDTH 735 0
DWIDTH 10 0
BBX 10 12 0 -2
BITMAP
FFC0
0C00
0C00
0C00
0C00
0C00
0C00
0C00
0C00
0C00
0000
1F00
ENDCHAR
STARTCHAR uni1E71
ENCODING 7793
SWIDTH 436 0
DWIDTH 6 0
BBX 5 11 1 -2
BITMAP
60
60
F8
60
60
60
60
68
38
00
F8
ENDCHAR
STARTCHAR uni1E72
ENCODING 7794
SWIDTH 783 0
DWIDTH 11 0
BBX 9 12 1 -2
BITMAP
C180
C180
C180
C180
C180
C180
C180
C180
6300
3E00
0000
3600
ENDCHAR
STARTCHAR uni1E73
ENCODING 7795
SWIDTH 693 0
DWIDTH 10 0
BBX 7 9 1 -2
BITMAP
C6
C6
C6
C6
C6
CE
76
00
6C
ENDCHAR
STARTCHAR uni1E74
ENCODING 7796
SWIDTH 783 0
DWIDTH 11 0
BBX 9 12 1 -2
BITMAP
C180
C180
C180
C180
C180
C180
C180
C180
6300
3E00
0000
3E00
ENDCHAR
STARTCHAR uni1E75
ENCODING 7797
SWIDTH 693 0
DWIDTH 10 0
BBX 7 9 1 -2
BITMAP
C6
C6
C6
C6
C6
CE
76
00
7C
ENDCHAR
STARTCHAR uni1E76
ENCODING 7798
SWIDTH 783 0
DWIDTH 11 0
BBX 9 12 1 -2
BITMAP
C180
C180
C180
C180
C180
C180
C180
C180
6300
3E00
0000
3E00
ENDCHAR
STARTCHAR uni1E77
ENCODING 7799
SWIDTH 693 0
DWIDTH 10 0
BBX 7 9 1 -2
BITMAP
C6
C6
C6
C6
C6
CE
76
00
7C
ENDCHAR
STARTCHAR uni1E78
ENCODING 7800
SWIDTH 783 0
DWIDTH 11 0
BBX 9 14 1 0
BITMAP
1E00
0000
3E00
0000
C180
C180
C180
C180
C180
C180
C180
C180
6300
3E00
ENDCHAR
STARTCHAR uni1E79
ENCODING 7801
SWIDTH 693 0
DWIDTH 10 0
BBX 7 11 1 0
BITMAP
3C
00
7C
00
C6
C6
C6
C6
C6
CE
76
ENDCHAR
STARTCHAR uni1E7A
ENCODING 7802
SWIDTH 783 0
DWIDTH 11 0
BBX 9 14 1 0
BITMAP
3600
0000
3E00
0000
C180
C180
C180
C180
C180
C180
C180
C180
6300
3E00
ENDCHAR
STARTCHAR uni1E7B
ENCODING 7803
SWIDTH 693 0
DWIDTH 10 0
BBX 7 11 1 0
BITMAP
6C
00
7C
00
C6
C6
C6
C6
C6
CE
76
ENDCHAR
STARTCHAR uni1E7C
ENCODING 7804
SWIDTH 735 0
DWIDTH 10 0
BBX 10 12 0 0
BITMAP
3E00
0000
E0C0
6080
6080
3100
3100
3900
1A00
1A00
0E00
0C00
ENDCHAR
STARTCHAR uni1E7D
ENCODING 7805
SWIDTH 663 0
DWIDTH 9 0
BBX 9 9 0 0
BITMAP
3E00
0000
E180
6100
3300
3200
3A00
1C00
1C00
ENDCHAR
STARTCHAR uni1E7E
ENCODING 7806
SWIDTH 735 0
DWIDTH 10 0
BBX 10 12 0 -2
BITMAP
E0C0
6080
6080
3100
3100
3900
1A00
1A00
0E00
0C00
0000
0C00
ENDCHAR
STARTCHAR uni1E7F
ENCODING 7807
SWIDTH 663 0
DWIDTH 9 0
BBX 9 9 0 -2
BITMAP
E180
6100
3300
3200
3A00
1C00
1C00
0000
0C00
ENDCHAR
STARTCHAR Wgrave
ENCODING 7808
SWIDTH 940 0
DWIDTH 13 0
BBX 13 12 0 0
BITMAP
0F00
0000
C308
6310
6310
6590
65B0
35A0
35A0
39A0
38E0
18C0
ENDCHAR
STARTCHAR wgrave
ENCODING 7809
SWIDTH 885 0
DWIDTH 12 0
BBX 12 9 0 0
BITMAP
0F00
0000
C730
6720
6720
6B60
79C0
39C0
31C0
ENDCHAR
STARTCHAR Wacute
ENCODING 7810
SWIDTH 940 0
DWIDTH 13 0
BBX 13 12 0 0
BITMAP
0F00
0000
C308
6310
6310
6590
65B0
35A0
35A0
39A0
38E0
18C0
ENDCHAR
STARTCHAR wacute
ENCODING 7811
SWIDTH 885 0
DWIDTH 12 0
BBX 12 9 0 0
BITMAP
0F00
0000
C730
6720
6720
6B60
79C0
39C0
31C0
ENDCHAR
STARTCHAR Wdieresis
ENCODING 7812
SWIDTH 940 0
DWIDTH 13 0
BBX 13 12 0 0
BITMAP
0D80
0000
C308
6310
6310
6590
65B0
35A0
35A0
39A0
38E0
18C0
ENDCHAR
STARTCHAR wdieresis
ENCODING 7813
SWIDTH 885 0
DWIDTH 12 0
BBX 12 9 0 0
BITMAP
1B00
0000
C730
6720
6720
6B60
79C0
39C0
31C0
ENDCHAR
STARTCHAR uni1E86
ENCODING 7814
SWIDTH 940 0
DWIDTH 13 0
BBX 13 12 0 0
BITMAP
0600
0000
C308
6310
6310
6590
65B0
35A0
35A0
39A0
38E0
18C0
ENDCHAR
STARTCHAR uni1E87
ENCODING 7815
SWIDTH 885 0
DWIDTH 12 0
BBX 12 9 0 0
BITMAP
0600
0000
C730
6720
6720
6B60
79C0
39C0
31C0
ENDCHAR
STARTCHAR uni1E88
ENCODING 7816
SWIDTH 940 0
DWIDTH 13 0
BBX 13 12 0 -2
BITMAP
C308
6310
6310
6590
65B0
35A0
35A0
39A0
38E0
18C0
0000
0600
ENDCHAR
STARTCHAR uni1E89
ENCODING 7817
SWIDTH 885 0
DWIDTH 12 0
BBX 12 9 0 -2
BITMAP
C730
6720
6720
6B60
79C0
39C0
31C0
0000
0600
ENDCHAR
STARTCHAR uni1E8A
ENCODING 7818
SWIDTH 699 0
DWIDTH 10 0
BBX 9 12 1 0
BITMAP
1800
0000
6100
7200
3200
1C00
1C00
1C00
1E00
2600
6700
C380
ENDCHAR
STARTCHAR uni1E8B
ENCODING 7819
SWIDTH 568 0
DWIDTH 8 0
BBX 7 9 1 0
BITMAP
30
00
E6
7C
38
38
3C
7C
CE
ENDCHAR
STARTCHAR uni1E8C
ENCODING 7820
SWIDTH 699 0
DWIDTH 10 0
BBX 9 12 1 0
BITMAP
3600
0000
6100
7200
3200
1C00
1C00
1C00
1E00
2600
6700
C380
ENDCHAR
STARTCHAR uni1E8D
ENCODING 7821
SWIDTH 568 0
DWIDTH 8 0
BBX 7 9 1 0
BITMAP
6C
00
E6
7C
38
38
3C
7C
CE
ENDCHAR
STARTCHAR uni1E8E
ENCODING 7822
SWIDTH 738 0
DWIDTH 10 0
BBX 8 12 1 0
BITMAP
18
00
E3
62
74
34
38
18
18
18
18
18
ENDCHAR
STARTCHAR uni1E8F
ENCODING 7823
SWIDTH 645 0
DWIDTH 9 0
BBX 9 12 0 -3
BITMAP
1800
0000
E180
6100
7200
3200
3400
1C00
1800
1800
3000
7000
ENDCHAR
STARTCHAR uni1E90
ENCODING 7824
SWIDTH 675 0
DWIDTH 9 0
BBX 8 12 1 0
BITMAP
3E
00
FF
07
0E
0C
1C
38
30
70
E0
FF
ENDCHAR
STARTCHAR uni1E91
ENCODING 7825
SWIDTH 608 0
DWIDTH 9 0
BBX 7 9 1 0
BITMAP
7C
00
FE
0E
1C
38
70
E0
FE
ENDCHAR
STARTCHAR uni1E92
ENCODING 7826
SWIDTH 675 0
DWIDTH 9 0
BBX 8 12 1 -2
BITMAP
FF
07
0E
0C
1C
38
30
70
E0
FF
00
30
ENDCHAR
STARTCHAR uni1E93
ENCODING 7827
SWIDTH 608 0
DWIDTH 9 0
BBX 7 9 1 -2
BITMAP
FE
0E
1C
38
70
E0
FE
00
30
ENDCHAR
STARTCHAR uni1E94
ENCODING 7828
SWIDTH 675 0
DWIDTH 9 0
BBX 8 12 1 -2
BITMAP
FF
07
0E
0C
1C
38
30
70
E0
FF
00
7C
ENDCHAR
STARTCHAR uni1E95
ENCODING 7829
SWIDTH 608 0
DWIDTH 9 0
BBX 7 9 1 -2
BITMAP
FE
0E
1C
38
70
E0
FE
00
7C
ENDCHAR
STARTCHAR uni1E96
ENCODING 7830
SWIDTH 693 0
DWIDTH 10 0
BBX 7 12 1 -2
BITMAP
C0
C0
C0
DC
E6
C6
C6
C6
C6
C6
00
7C
ENDCHAR
STARTCHAR uni1E97
ENCODING 7831
SWIDTH 436 0
DWIDTH 6 0
BBX 5 11 1 0
BITMAP
D8
00
60
60
F8
60
60
60
60
68
38
ENDCHAR
STARTCHAR uni1E98
ENCODING 7832
SWIDTH 885 0
DWIDTH 12 0
BBX 12 9 0 0
BITMAP
0600
0000
C730
6720
6720
6B60
79C0
39C0
31C0
ENDCHAR
STARTCHAR uni1E99
ENCODING 7833
SWIDTH 645 0
DWIDTH 9 0
BBX 9 12 0 -3
BITMAP
1800
0000
E180
6100
7200
3200
3400
1C00
1800
1800
3000
7000
ENDCHAR
STARTCHAR uni1EA0
ENCODING 7840
SWIDTH 773 0
DWIDTH 11 0
BBX 10 12 0 -2
BITMAP
0C00
1600
1600
1600
2300
2300
3F00
4180
4180
C1C0
0000
0C00
ENDCHAR
STARTCHAR uni1EA1
ENCODING 7841
SWIDTH 623 0
DWIDTH 9 0
BBX 8 9 0 -2
BITMAP
7C
46
7E
E6
C6
CF
77
00
18
ENDCHAR
STARTCHAR uni1EA4
ENCODING 7844
SWIDTH 773 0
DWIDTH 11 0
BBX 10 14 0 0
BITMAP
1E00
0000
1F00
0000
0C00
1600
1600
1600
2300
2300
3F00
4180
4180
C1C0
ENDCHAR
STARTCHAR uni1EA5
ENCODING 7845
SWIDTH 623 0
DWIDTH 9 0
BBX 8 11 0 0
BITMAP
3C
00
3E
00
7C
46
7E
E6
C6
CF
77
ENDCHAR
STARTCHAR uni1EA6
ENCODING 7846
SWIDTH 773 0
DWIDTH 11 0
BBX 10 14 0 0
BITMAP
1E00
0000
1F00
0000
0C00
1600
1600
1600
2300
2300
3F00
4180
4180
C1C0
ENDCHAR
STARTCHAR uni1EA7
ENCODING 7847
SWIDTH 623 0
DWIDTH 9 0
BBX 8 11 0 0
BITMAP
3C
00
3E
00
7C
46
7E
E6
C6
CF
77
ENDCHAR
STARTCHAR uni1EAA
ENCODING 7850
SWIDTH 773 0
DWIDTH 11 0
BBX 10 14 0 0
BITMAP
1F00
0000
1F00
0000
0C00
1600
1600
1600
2300
2300
3F00
4180
4180
C1C0
ENDCHAR
STARTCHAR uni1EAB
ENCODING 7851
SWIDTH 623 0
DWIDTH 9 0
BBX 8 11 0 0
BITMAP
3E
00
3E
00
7C
46
7E
E6
C6
CF
77
ENDCHAR
STARTCHAR uni1EAC
ENCODING 7852
SWIDTH 773 0
DWIDTH 11 0
BBX 10 14 0 -2
BITMAP
1F00
0000
0C00
1600
1600
1600
2300
2300
3F00
4180
4180
C1C0
0000
0C00
ENDCHAR
STARTCHAR uni1EAD
ENCODING 7853
SWIDTH 623 0
DWIDTH 9 0
BBX 8 11 0 -2
BITMAP
7C
00
7C
46
7E
E6
C6
CF
77
00
18
ENDCHAR
STARTCHAR uni1EAE
ENCODING 7854
SWIDTH 773 0
DWIDTH 11 0
BBX 10 14 0 0
BITMAP
1E00
0000
1F00
0000
0C00
1600
1600
1600
2300
2300
3F00
4180
4180
C1C0
ENDCHAR
STARTCHAR uni1EAF
ENCODING 7855
SWIDTH 623 0
DWIDTH 9 0
BBX 8 11 0 0
BITMAP
3C
00
7C
00
7C
46
7E
E6
C6
CF
77
ENDCHAR
STARTCHAR uni1EB0
ENCODING 7856
SWIDTH 773 0
DWIDTH 11 0
BBX 10 14 0 0
BITMAP
1E00
0000
1F00
0000
0C00
1600
1600
1600
2300
2300
3F00
4180
4180
C1C0
ENDCHAR
STARTCHAR uni1EB1
ENCODING 7857
SWIDTH 623 0
DWIDTH 9 0
BBX 8 11 0 0
BITMAP
3C
00
7C
00
7C
46
7E
E6
C6
CF
77
ENDCHAR
STARTCHAR uni1EB4
ENCODING 7860
SWIDTH 773 0
DWIDTH 11 0
BBX 10 14 0 0
BITMAP
1F00
0000
1F00
0000
0C00
1600
1600
1600
2300
2300
3F00
4180
4180
C1C0
ENDCHAR
STARTCHAR uni1EB5
ENCODING 7861
SWIDTH 623 0
DWIDTH 9 0
BBX 8 11 0 0
BITMAP
7C
00
7C
00
7C
46
7E
E6
C6
CF
77
ENDCHAR
STARTCHAR uni1EB6
ENCODING 7862
SWIDTH 773 0
DWIDTH 11 0
BBX 10 14 0 -2
BITMAP
1F00
0000
0C00
1600
1600
1600
2300
2300
3F00
4180
4180
C1C0
0000
0C00
ENDCHAR
STARTCHAR uni1EB7
ENCODING 7863
SWIDTH 623 0
DWIDTH 9 0
BBX 8 11 0 -2
BITMAP
7C
00
7C
46
7E
E6
C6
CF
77
00
18
ENDCHAR
STARTCHAR uni1EB8
ENCODING 7864
SWIDTH 645 0
DWIDTH 9 0
BBX 7 12 1 -2
BITMAP
FE
C0
C0
C0
FC
C0
C0
C0
C0
FE
00
30
ENDCHAR
STARTCHAR uni1EB9
ENCODING 7865
SWIDTH 614 0
DWIDTH 9 0
BBX 8 9 0 -2
BITMAP
3E
63
C3
FF
E0
70
3F
00
18
ENDCHAR
STARTCHAR uni1EBC
ENCODING 7868
SWIDTH 645 0
DWIDTH 9 0
BBX 7 12 1 0
BITMAP
F8
00
FE
C0
C0
C0
FC
C0
C0
C0
C0
FE
ENDCHAR
STARTCHAR uni1EBD
ENCODING 7869
SWIDTH 614 0
DWIDTH 9 0
BBX 8 9 0 0
BITMAP
3E
00
3E
63
C3
FF
E0
70
3F
ENDCHAR
STARTCHAR uni1EBE
ENCODING 7870
SWIDTH 645 0
DWIDTH 9 0
BBX 7 14 1 0
BITMAP
78
00
7C
00
FE
C0
C0
C0
FC
C0
C0
C0
C0
FE
ENDCHAR
STARTCHAR uni1EBF
ENCODING 7871
SWIDTH 614 0
DWIDTH 9 0
BBX 8 11 0 0
BITMAP
3C
00
3E
00
3E
63
C3
FF
E0
70
3F
ENDCHAR
STARTCHAR uni1EC0
ENCODING 7872
SWIDTH 645 0
DWIDTH 9 0
BBX 7 14 1 0
BITMAP
78
00
7C
00
FE
C0
C0
C0
FC
C0
C0
C0
C0
FE
ENDCHAR
STARTCHAR uni1EC1
ENCODING 7873
SWIDTH 614 0
DWIDTH 9 0
BBX 8 11 0 0
BITMAP
3C
00
3E
00
3E
63
C3
FF
E0
70
3F
ENDCHAR
STARTCHAR uni1EC4
ENCODING 7876
SWIDTH 645 0
DWIDTH 9 0
BBX 7 14 1 0
BITMAP
7C
00
7C
00
FE
C0
C0
C0
FC
C0
C0
C0
C0
FE
ENDCHAR
STARTCHAR uni1EC5
ENCODING 7877
SWIDTH 614 0
DWIDTH 9 0
BBX 8 11 0 0
BITMAP
3E
00
3E
00
3E
63
C3
FF
E0
70
3F
ENDCHAR
STARTCHAR uni1EC6
ENCODING 7878
SWIDTH 645 0
DWIDTH 9 0
BBX 7 14 1 -2
BITMAP
F8
00
FE
C0
C0
C0
FC
C0
C0
C0
C0
FE
00
30
ENDCHAR
STARTCHAR uni1EC7
ENCODING 7879
SWIDTH 614 0
DWIDTH 9 0
BBX 8 11 0 -2
BITMAP
3E
00
3E
63
C3
FF
E0
70
3F
00
18
ENDCHAR
STARTCHAR uni1ECA
ENCODING 7882
SWIDTH 361 0
DWIDTH 5 0
BBX 2 12 2 -2
BITMAP
C0
C0
C0
C0
C0
C0
C0
C0
C0
C0
00
C0
ENDCHAR
STARTCHAR uni1ECB
ENCODING 7883
SWIDTH 361 0
DWIDTH 5 0
BBX 2 12 2 -2
BITMAP
C0
00
00
C0
C0
C0
C0
C0
C0
C0
00
C0
ENDCHAR
STARTCHAR uni1ECC
ENCODING 7884
SWIDTH 855 0
DWIDTH 12 0
BBX 11 12 0 -2
BITMAP
1F00
71C0
60C0
C060
C060
C060
C060
60C0
71C0
1F00
0000
0600
ENDCHAR
STARTCHAR uni1ECD
ENCODING 7885
SWIDTH 675 0
DWIDTH 9 0
BBX 8 9 1 -2
BITMAP
3C
66
C3
C3
C3
66
3C
00
18
ENDCHAR
STARTCHAR uni1ED0
ENCODING 7888
SWIDTH 855 0
DWIDTH 12 0
BBX 11 14 0 0
BITMAP
0F00
0000
1F00
0000
1F00
71C0
60C0
C060
C060
C060
C060
60C0
71C0
1F00
ENDCHAR
STARTCHAR uni1ED1
ENCODING 7889
SWIDTH 675 0
DWIDTH 9 0
BBX 8 11 1 0
BITMAP
3C
00
3E
00
3C
66
C3
C3
C3
66
3C
ENDCHAR
STARTCHAR uni1ED2
ENCODING 7890
SWIDTH 855 0
DWIDTH 12 0
BBX 11 14 0 0
BITMAP
0F00
0000
1F00
0000
1F00
71C0
60C0
C060
C060
C060
C060
60C0
71C0
1F00
ENDCHAR
STARTCHAR uni1ED3
ENCODING 7891
SWIDTH 675 0
DWIDTH 9 0
BBX 8 11 1 0
BITMAP
3C
00
3E
00
3C
66
C3
C3
C3
66
3C
ENDCHAR
STARTCHAR uni1ED6
ENCODING 7894
SWIDTH 855 0
DWIDTH 12 0
BBX 11 14 0 0
BITMAP
1F00
0000
1F00
0000
1F00
71C0
60C0
C060
C060
C060
C060
60C0
71C0
1F00
ENDCHAR
STARTCHAR uni1ED7
ENCODING 7895
SWIDTH 675 0
DWIDTH 9 0
BBX 8 11 1 0
BITMAP
3E
00
3E
00
3C
66
C3
C3
C3
66
3C
ENDCHAR
STARTCHAR uni1ED8
ENCODING 7896
SWIDTH 855 0
DWIDTH 12 0
BBX 11 14 0 -2
BITMAP
1F00
0000
1F00
71C0
60C0
C060
C060
C060
C060
60C0
71C0
1F00
0000
0600
ENDCHAR
STARTCHAR uni1ED9
ENCODING 7897
SWIDTH 675 0
DWIDTH 9 0
BBX 8 11 1 -2
BITMAP
3E
00
3C
66
C3
C3
C3
66
3C
00
18
ENDCHAR
STARTCHAR uni1EDA
ENCODING 7898
SWIDTH 855 0
DWIDTH 12 0
BBX 13 12 0 0
BITMAP
0780
0000
1F38
71F8
60D8
C070
C060
C060
C060
60C0
71C0
1F00
ENDCHAR
STARTCHAR uni1EDB
ENCODING 7899
SWIDTH 675 0
DWIDTH 9 0
BBX 11 9 1 0
BITMAP
0F00
0000
3CE0
66E0
C360
C3C0
C300
6600
3C00
ENDCHAR
STARTCHAR uni1EDC
ENCODING 7900
SWIDTH 855 0
DWIDTH 12 0
BBX 13 12 0 0
BITMAP
0780
0000
1F38
71F8
60D8
C070
C060
C060
C060
60C0
71C0
1F00
ENDCHAR
STARTCHAR uni1EDD
ENCODING 7901
SWIDTH 675 0
DWIDTH 9 0
BBX 11 9 1 0
BITMAP
0F00
0000
3CE0
66E0
C360
C3C0
C300
6600
3C00
ENDCHAR
STARTCHAR uni1EE0
ENCODING 7904
SWIDTH 855 0
DWIDTH 12 0
BBX 13 12 0 0
BITMAP
07C0
0000
1F38
71F8
60D8
C070
C060
C060
C060
60C0
71C0
1F00
ENDCHAR
STARTCHAR uni1EE1
ENCODING 7905
SWIDTH 675 0
DWIDTH 9 0
BBX 11 9 1 0
BITMAP
0F80
0000
3CE0
66E0
C360
C3C0
C300
6600
3C00
ENDCHAR
STARTCHAR uni1EE2
ENCODING 7906
SWIDTH 855 0
DWIDTH 12 0
BBX 13 12 0 -2
BITMAP
1F38
71F8
60D8
C070
C060
C060
C060
60C0
71C0
1F00
0000
0600
ENDCHAR
STARTCHAR uni1EE3
ENCODING 7907
SWIDTH 675 0
DWIDTH 9 0
BBX 11 9 1 -2
BITMAP
3CE0
66E0
C360
C3C0
C300
6600
3C00
0000
0C00
ENDCHAR
STARTCHAR uni1EE4
ENCODING 7908
SWIDTH 783 0
DWIDTH 11 0
BBX 9 12 1 -2
BITMAP
C180
C180
C180
C180
C180
C180
C180
C180
6300
3E00
0000
0C00
ENDCHAR
STARTCHAR uni1EE5
ENCODING 7909
SWIDTH 693 0
DWIDTH 10 0
BBX 7 9 1 -2
BITMAP
C6
C6
C6
C6
C6
CE
76
00
18
ENDCHAR
STARTCHAR uni1EE8
ENCODING 7912
SWIDTH 783 0
DWIDTH 11 0
BBX 11 12 1 0
BITMAP
0F00
0000
C1E0
C1E0
C1E0
C1C0
C180
C180
C180
C180
6300
3E00
ENDCHAR
STARTCHAR uni1EE9
ENCODING 7913
SWIDTH 693 0
DWIDTH 10 0
BBX 10 9 1 0
BITMAP
1E00
0000
C7C0
C7C0
C6C0
C780
C600
CE00
7600
ENDCHAR
STARTCHAR uni1EEA
ENCODING 7914
SWIDTH 783 0
DWIDTH 11 0
BBX 11 12 1 0
BITMAP
0F00
0000
C1E0
C1E0
C1E0
C1C0
C180
C180
C180
C180
6300
3E00
ENDCHAR
STARTCHAR uni1EEB
ENCODING 7915
SWIDTH 693 0
DWIDTH 10 0
BBX 10 9 1 0
BITMAP
1E00
0000
C7C0
C7C0
C6C0
C780
C600
CE00
7600
ENDCHAR
STARTCHAR uni1EEE
ENCODING 7918
SWIDTH 783 0
DWIDTH 11 0
BBX 11 12 1 0
BITMAP
0F80
0000
C1E0
C1E0
C1E0
C1C0
C180
C180
C180
C180
6300
3E00
ENDCHAR
STARTCHAR uni1EEF
ENCODING 7919
SWIDTH 693 0
DWIDTH 10 0
BBX 10 9 1 0
BITMAP
1F00
0000
C7C0
C7C0
C6C0
C780
C600
CE00
7600
ENDCHAR
STARTCHAR uni1EF0
ENCODING 7920
SWIDTH 783 0
DWIDTH 11 0
BBX 11 12 1 -2
BITMAP
C1E0
C1E0
C1E0
C1C0
C180
C180
C180
C180
6300
3E00
0000
0C00
ENDCHAR
STARTCHAR uni1EF1
ENCODING 7921
SWIDTH 693 0
DWIDTH 10 0
BBX 10 9 1 -2
BITMAP
C7C0
C7C0
C6C0
C780
C600
CE00
7600
0000
1800
ENDCHAR
STARTCHAR Ygrave
ENCODING 7922
SWIDTH 738 0
DWIDTH 10 0
BBX 8 12 1 0
BITMAP
3C
00
E3
62
74
34
38
18
18
18
18
18
ENDCHAR
STARTCHAR ygrave
ENCODING 7923
SWIDTH 645 0
DWIDTH 9 0
BBX 9 12 0 -3
BITMAP
3C00
0000
E180
6100
7200
3200
3400
1C00
1800
1800
3000
7000
ENDCHAR
STARTCHAR uni1EF4
ENCODING 7924
SWIDTH 738 0
DWIDTH 10 0
BBX 8 12 1 -2
BITMAP
E3
62
74
34
38
18
18
18
18
18
00
18
ENDCHAR
STARTCHAR uni1EF5
ENCODING 7925
SWIDTH 645 0
DWIDTH 9 0
BBX 9 12 0 -5
BITMAP
E180
6100
7200
3200
3400
1C00
1800
1800
3000
7000
0000
1800
ENDCHAR
STARTCHAR uni1EF8
ENCODING 7928
SWIDTH 738 0
DWIDTH 10 0
BBX 8 12 1 0
BITMAP
7C
00
E3
62
74
34
38
18
18
18
18
18
ENDCHAR
STARTCHAR uni1EF9
ENCODING 7929
SWIDTH 645 0
DWIDTH 9 0
BBX 9 12 0 -3
BITMAP
3E00
0000
E180
6100
7200
3200
3400
1C00
1800
1800
3000
7000
ENDCHAR
STARTCHAR uni2000
ENCODING 8192
SWIDTH 500 0
DWIDTH 7 0
BBX 1 1 0 0
BITMAP
00
ENDCHAR
STARTCHAR uni2001
ENCODING 8193
SWIDTH 1000 0
DWIDTH 14 0
BBX 1 1 0 0
BITMAP
00
ENDCHAR
STARTCHAR uni2002
ENCODING 8194
SWIDTH 500 0
DWIDTH 7 0
BBX 1 1 0 0
BITMAP
00
ENDCHAR
STARTCHAR uni2003
ENCODING 8195
SWIDTH 1000 0
DWIDTH 14 0
BBX 1 1 0 0
BITMAP
00
ENDCHAR
STARTCHAR uni2004
ENCODING 8196
SWIDTH 333 0
DWIDTH 5 0
BBX 1 1 0 0
BITMAP
00
ENDCHAR
STARTCHAR uni2005
ENCODING 8197
SWIDTH 250 0
DWIDTH 3 0
BBX 1 1 0 0
BITMAP
00
ENDCHAR
STARTCHAR uni2006
ENCODING 8198
SWIDTH 167 0
DWIDTH 2 0
BBX 1 1 0 0
BITMAP
00
ENDCHAR
STARTCHAR uni2007
ENCODING 8199
SWIDTH 687 0
DWIDTH 10 0
BBX 1 1 0 0
BITMAP
00
ENDCHAR
STARTCHAR uni2008
ENCODING 8200
SWIDTH 343 0
DWIDTH 5 0
BBX 1 1 0 0
BITMAP
00
ENDCHAR
STARTCHAR uni2009
ENCODING 8201
SWIDTH 200 0
DWIDTH 3 0
BBX 1 1 0 0
BITMAP
00
ENDCHAR
STARTCHAR uni200A
ENCODING 8202
SWIDTH 100 0
DWIDTH 1 0
BBX 1 1 0 0
BITMAP
00
ENDCHAR
STARTCHAR uni200B
ENCODING 8203
SWIDTH 0 0
DWIDTH 0 0
BBX 1 1 0 0
BITMAP
00
ENDCHAR
STARTCHAR uni2010
ENCODING 8208
SWIDTH 289 0
DWIDTH 4 0
BBX 3 1 1 4
BITMAP
E0
ENDCHAR
STARTCHAR uni2011
ENCODING 8209
SWIDTH 289 0
DWIDTH 4 0
BBX 3 1 1 4
BITMAP
E0
ENDCHAR
STARTCHAR figuredash
ENCODING 8210
SWIDTH 500 0
DWIDTH 7 0
BBX 6 1 1 4
BITMAP
FC
ENDCHAR
STARTCHAR endash
ENCODING 8211
SWIDTH 500 0
DWIDTH 7 0
BBX 6 1 1 4
BITMAP
FC
ENDCHAR
STARTCHAR emdash
ENCODING 8212
SWIDTH 1000 0
DWIDTH 14 0
BBX 13 1 1 3
BITMAP
FFF8
ENDCHAR
STARTCHAR afii00208
ENCODING 8213
SWIDTH 1000 0
DWIDTH 14 0
BBX 13 1 1 3
BITMAP
FFF8
ENDCHAR
STARTCHAR quoteleft
ENCODING 8216
SWIDTH 265 0
DWIDTH 4 0
BBX 3 4 0 6
BITMAP
60
C0
E0
E0
ENDCHAR
STARTCHAR quoteright
ENCODING 8217
SWIDTH 265 0
DWIDTH 4 0
BBX 3 4 0 6
BITMAP
E0
E0
60
C0
ENDCHAR
STARTCHAR quotesinglbase
ENCODING 8218
SWIDTH 265 0
DWIDTH 4 0
BBX 3 5 0 -3
BITMAP
E0
E0
60
60
C0
ENDCHAR
STARTCHAR quotereversed
ENCODING 8219
SWIDTH 265 0
DWIDTH 4 0
BBX 3 4 0 6
BITMAP
E0
E0
C0
60
ENDCHAR
STARTCHAR quotedblleft
ENCODING 8220
SWIDTH 530 0
DWIDTH 7 0
BBX 6 4 1 6
BITMAP
44
C8
CC
CC
ENDCHAR
STARTCHAR quotedblright
ENCODING 8221
SWIDTH 530 0
DWIDTH 7 0
BBX 6 4 1 6
BITMAP
CC
CC
4C
88
ENDCHAR
STARTCHAR quotedblbase
ENCODING 8222
SWIDTH 530 0
DWIDTH 7 0
BBX 6 5 1 -3
BITMAP
CC
CC
4C
4C
88
ENDCHAR
STARTCHAR uni201F
ENCODING 8223
SWIDTH 530 0
DWIDTH 7 0
BBX 6 4 1 6
BITMAP
CC
CC
C8
44
ENDCHAR
STARTCHAR dagger
ENCODING 8224
SWIDTH 693 0
DWIDTH 10 0
BBX 6 13 2 -3
BITMAP
30
30
30
30
FC
30
30
30
30
30
30
30
30
ENDCHAR
STARTCHAR daggerdbl
ENCODING 8225
SWIDTH 693 0
DWIDTH 10 0
BBX 6 13 2 -3
BITMAP
30
30
30
30
FC
30
30
30
FC
30
30
30
30
ENDCHAR
STARTCHAR bullet
ENCODING 8226
SWIDTH 687 0
DWIDTH 10 0
BBX 5 4 2 3
BITMAP
F8
F8
F8
F8
ENDCHAR
STARTCHAR ellipsis
ENCODING 8230
SWIDTH 1000 0
DWIDTH 14 0
BBX 11 1 2 0
BITMAP
8420
ENDCHAR
STARTCHAR perthousand
ENCODING 8240
SWIDTH 1313 0
DWIDTH 18 0
BBX 18 10 0 0
BITMAP
606000
908000
918000
910000
920000
640000
0CE180
191240
111240
60E180
ENDCHAR
STARTCHAR guilsinglleft
ENCODING 8249
SWIDTH 361 0
DWIDTH 5 0
BBX 3 7 0 0
BITMAP
20
60
C0
80
C0
40
60
ENDCHAR
STARTCHAR guilsinglright
ENCODING 8250
SWIDTH 361 0
DWIDTH 5 0
BBX 3 7 1 0
BITMAP
C0
40
60
20
60
C0
80
ENDCHAR
STARTCHAR fraction
ENCODING 8260
SWIDTH 93 0
DWIDTH 1 0
BBX 10 10 -3 0
BITMAP
00C0
0100
0300
0200
0400
0800
1000
3000
2000
C000
ENDCHAR
STARTCHAR oneinferior
ENCODING 8321
SWIDTH 536 0
DWIDTH 6 0
BBX 2 6 -9 -3
BITMAP
C0
40
40
40
40
40
ENDCHAR
STARTCHAR twoinferior
ENCODING 8322
SWIDTH 536 0
DWIDTH 6 0
BBX 5 6 -8 -3
BITMAP
F0
08
08
30
E0
F8
ENDCHAR
STARTCHAR threeinferior
ENCODING 8323
SWIDTH 536 0
DWIDTH 6 0
BBX 4 6 -8 -3
BITMAP
E0
10
60
10
10
E0
ENDCHAR
STARTCHAR uni20A5
ENCODING 8357
SWIDTH 1006 0
DWIDTH 14 0
BBX 12 13 1 -3
BITMAP
00C0
0080
0100
DDF0
E730
C630
C630
C630
C630
CE30
0800
1000
3000
ENDCHAR
STARTCHAR uni20A6
ENCODING 8358
SWIDTH 783 0
DWIDTH 11 0
BBX 9 10 1 0
BITMAP
C080
E080
FF80
B080
9880
8C80
FF80
8780
8380
8180
ENDCHAR
STARTCHAR uni20A9
ENCODING 8361
SWIDTH 940 0
DWIDTH 13 0
BBX 13 10 0 0
BITMAP
C308
6310
7FF0
6590
65B0
35A0
3FE0
39A0
38E0
18C0
ENDCHAR
STARTCHAR Euro
ENCODING 8364
SWIDTH 726 0
DWIDTH 10 0
BBX 11 10 -1 0
BITMAP
07E0
1C20
FF00
3000
3000
3000
FF00
1800
1C20
07E0
ENDCHAR
STARTCHAR uni20AD
ENCODING 8365
SWIDTH 753 0
DWIDTH 11 0
BBX 9 10 1 0
BITMAP
C300
C600
CC00
D800
FF80
F800
DC00
CE00
C600
C380
ENDCHAR
STARTCHAR uni2103
ENCODING 8451
SWIDTH 955 0
DWIDTH 13 0
BBX 11 10 2 0
BITMAP
E7E0
7C20
1800
3000
3000
3000
3000
1800
1C20
07E0
ENDCHAR
STARTCHAR uni2109
ENCODING 8457
SWIDTH 831 0
DWIDTH 11 0
BBX 9 10 2 0
BITMAP
FF80
7800
1800
1800
1F00
1800
1800
1800
1800
1800
ENDCHAR
STARTCHAR trademark
ENCODING 8482
SWIDTH 901 0
DWIDTH 13 0
BBX 12 5 0 5
BITMAP
FF30
33F0
33F0
33F0
32B0
ENDCHAR
STARTCHAR uni212A
ENCODING 8490
SWIDTH 753 0
DWIDTH 11 0
BBX 9 10 1 0
BITMAP
C300
C600
CC00
D800
D000
F800
DC00
CE00
C600
C380
ENDCHAR
STARTCHAR uni212B
ENCODING 8491
SWIDTH 773 0
DWIDTH 11 0
BBX 10 12 0 0
BITMAP
0C00
0000
0C00
1600
1600
1600
2300
2300
3F00
4180
4180
C1C0
ENDCHAR
STARTCHAR uni2132
ENCODING 8498
SWIDTH 602 0
DWIDTH 8 0
BBX 6 10 2 0
BITMAP
0C
0C
0C
0C
0C
7C
0C
0C
0C
FC
ENDCHAR
STARTCHAR universal
ENCODING 8704
SWIDTH 773 0
DWIDTH 11 0
BBX 10 10 0 0
BITMAP
C1C0
4180
4180
3F00
2300
2300
1600
1600
1600
0C00
ENDCHAR
STARTCHAR existential
ENCODING 8707
SWIDTH 645 0
DWIDTH 9 0
BBX 7 10 1 0
BITMAP
FE
06
06
06
7E
06
06
06
06
FE
ENDCHAR
STARTCHAR uni2204
ENCODING 8708
SWIDTH 645 0
DWIDTH 9 0
BBX 8 13 1 -1
BITMAP
03
02
FE
06
0E
0E
7E
16
16
26
26
FE
C0
ENDCHAR
STARTCHAR minus
ENCODING 8722
SWIDTH 687 0
DWIDTH 10 0
BBX 8 1 1 4
BITMAP
FF
ENDCHAR
STARTCHAR fraction
ENCODING 8725
SWIDTH 93 0
DWIDTH 1 0
BBX 10 10 -3 0
BITMAP
00C0
0100
0300
0200
0400
0800
1000
3000
2000
C000
ENDCHAR
STARTCHAR periodcentered
ENCODING 8729
SWIDTH 343 0
DWIDTH 10 0
BBX 2 1 4 4
BITMAP
C0
ENDCHAR
STARTCHAR uni2236
ENCODING 8758
SWIDTH 343 0
DWIDTH 5 0
BBX 2 7 1 0
BITMAP
C0
C0
00
00
00
C0
C0
ENDCHAR
STARTCHAR uni2259
ENCODING 8793
SWIDTH 687 0
DWIDTH 10 0
BBX 8 7 1 1
BITMAP
3E
00
FF
00
00
00
FF
ENDCHAR
STARTCHAR uni225A
ENCODING 8794
SWIDTH 687 0
DWIDTH 10 0
BBX 8 7 1 1
BITMAP
3E
00
FF
00
00
00
FF
ENDCHAR
STARTCHAR notequal
ENCODING 8800
SWIDTH 687 0
DWIDTH 10 0
BBX 8 13 1 -3
BITMAP
03
02
04
04
FF
08
18
10
FF
20
20
40
C0
ENDCHAR
STARTCHAR equivalence
ENCODING 8801
SWIDTH 687 0
DWIDTH 10 0
BBX 8 5 0 1
BITMAP
FF
00
FF
00
FF
ENDCHAR
STARTCHAR uni2262
ENCODING 8802
SWIDTH 687 0
DWIDTH 10 0
BBX 8 13 0 -3
BITMAP
03
02
04
04
FF
08
FF
10
FF
20
20
40
C0
ENDCHAR
STARTCHAR lessequal
ENCODING 8804
SWIDTH 687 0
DWIDTH 10 0
BBX 7 10 0 -2
BITMAP
02
06
18
E0
60
18
06
02
00
FE
ENDCHAR
STARTCHAR greaterequal
ENCODING 8805
SWIDTH 687 0
DWIDTH 10 0
BBX 7 10 1 -2
BITMAP
80
C0
30
0C
0E
30
C0
80
00
FE
ENDCHAR
STARTCHAR uni226E
ENCODING 8814
SWIDTH 687 0
DWIDTH 10 0
BBX 8 13 0 -2
BITMAP
03
02
04
06
0E
18
F8
70
18
26
22
40
C0
ENDCHAR
STARTCHAR uni226F
ENCODING 8815
SWIDTH 687 0
DWIDTH 10 0
BBX 8 13 1 -2
BITMAP
03
02
04
84
C8
38
1C
1E
30
E0
A0
40
C0
ENDCHAR
STARTCHAR uni2270
ENCODING 8816
SWIDTH 687 0
DWIDTH 10 0
BBX 8 13 0 -3
BITMAP
03
02
06
06
18
E8
78
18
16
22
20
FE
C0
ENDCHAR
STARTCHAR uni2271
ENCODING 8817
SWIDTH 687 0
DWIDTH 10 0
BBX 8 13 1 -3
BITMAP
03
02
84
C4
38
0C
1E
30
D0
A0
20
FE
C0
ENDCHAR
STARTCHAR fi
ENCODING -1
SWIDTH 711 0
DWIDTH 10 0
BBX 8 10 1 0
BITMAP
3E
62
60
FF
63
63
63
63
63
63
ENDCHAR
STARTCHAR fl
ENCODING -1
SWIDTH 711 0
DWIDTH 10 0
BBX 8 10 1 0
BITMAP
3F
63
63
FB
63
63
63
63
63
63
ENDCHAR
ENDFONT
